<?xml version="1.0" standalone="no"?>
<!DOCTYPE svg PUBLIC "-//W3C//DTD SVG 1.1//EN" "http://www.w3.org/Graphics/SVG/1.1/DTD/svg11.dtd" >
<svg xmlns="http://www.w3.org/2000/svg">
    <defs>
        <font id="SansusWebissimo">
            <font-face font-family="SansusWebissimo"
                       units-per-em="1000"
                       ascent="750"
                       descent="-250"
                       bbox="-43 -241 1254 967"
                    />
            <missing-glyph horiz-adv-x="0" />
            
            <glyph glyph-name="!" unicode="&#x21;" horiz-adv-x="217" d=" M200,265 L83,265 L66,708 L217,708 M216,74 Q216,36 194.5,13 Q173,-10 141,-10 Q109,-10 87.5,13 Q66,36 66,74 Q66,112 87.5,135 Q109,158 141,158 Q173,158 194.5,135 Q216,112 216,74"/> 
            <glyph glyph-name="&quot;" unicode="&#x22;" horiz-adv-x="319" d=" M305,464 L221,464 L208,706 L319,706 M135,464 L52,464 L38,706 L149,706"/> 
            <glyph glyph-name="#" unicode="&#x23;" horiz-adv-x="483" d=" M440,616 Q433,583 427.5,550.5 Q422,518 415,485 L483,485 Q480,461 477,437.5 Q474,414 472,391 L397,391 L376,280 L459,280 L447,185 L359,185 L329,26 Q304,29 280,31.5 Q256,34 231,36 L258,185 L177,185 L148,32 Q123,34 99,36.5 Q75,39 50,42 L77,185 L11,185 L23,280 L95,280 L116,391 L35,391 L47,485 L134,485 L161,631 L260,622 L234,485 L315,485 L341,626 M215,391 Q210,363 205,335.5 Q200,308 195,280 L276,280 L297,391"/> 
            <glyph glyph-name="$" unicode="&#x24;" horiz-adv-x="401" d=" M50,166 Q60,163 75.5,158 Q91,153 109,148 Q127,143 146,139.5 Q165,136 183,136 Q217,136 234,151.5 Q251,167 251,192 Q251,213 235,230 Q219,247 195.5,264 Q172,281 144.5,298.5 Q117,316 93.5,338.5 Q70,361 54,389 Q38,417 38,455 Q38,517 72.5,557.5 Q107,598 169,612 L167,714 L269,714 Q268,690 267.5,666 Q267,642 267,618 Q306,615 334.5,608.5 Q363,602 379,598 L368,494 Q354,499 322,506.5 Q290,514 255,514 Q223,514 202,500.5 Q181,487 181,463 Q181,442 197.5,425 Q214,408 238,391.5 Q262,375 291,357.5 Q320,340 344,318 Q368,296 384.5,268 Q401,240 401,202 Q401,139 368.5,95.5 Q336,52 267,38 L269,-60 L167,-60 L169,31 Q141,33 118,38 Q95,43 77,49 Q59,55 46,60 Q33,65 26,68"/> 
            <glyph glyph-name="%" unicode="&#x25;" horiz-adv-x="636" d=" M636,151 Q636,63 603.5,21.5 Q571,-20 505,-20 Q438,-20 406.5,21.5 Q375,63 375,151 Q375,320 505,320 Q636,320 636,151 M228,-5 L118,-5 L441,665 L550,665 M293,509 Q293,421 261,379.5 Q229,338 163,338 Q96,338 64.5,379.5 Q33,421 33,509 Q33,678 163,678 Q293,678 293,509 M552,151 Q552,199 541,224.5 Q530,250 505,250 Q480,250 469.5,224.5 Q459,199 459,151 Q459,102 469.5,76.5 Q480,51 505,51 Q531,51 541.5,76.5 Q552,102 552,151 M210,509 Q210,557 199,582.5 Q188,608 163,608 Q138,608 127.5,582.5 Q117,557 117,509 Q117,460 127.5,434 Q138,408 163,408 Q189,408 199.5,434 Q210,460 210,509"/> 
            <glyph glyph-name="&amp;" unicode="&#x26;" horiz-adv-x="633" d=" M454,0 L412,48 Q379,20 338.5,4.5 Q298,-11 236,-11 Q192,-11 153,1 Q114,13 85,37.5 Q56,62 39.5,100.5 Q23,139 23,192 Q23,260 57,306 Q91,352 146,379 Q117,409 97.5,443.5 Q78,478 78,525 Q78,601 127,640 Q176,679 261,679 Q342,679 391.5,643 Q441,607 441,535 Q441,469 406.5,425 Q372,381 316,350 L423,229 Q429,238 435,250.5 Q441,263 445,277 Q449,291 452,305 Q455,319 455,330 L587,330 Q585,301 577.5,272.5 Q570,244 559,218.5 Q548,193 535.5,172 Q523,151 510,136 L633,0 M307,520 Q307,539 297,557.5 Q287,576 260,576 Q244,576 232,565 Q220,554 220,523 Q220,504 222.5,487 Q225,470 242,450 L256,434 Q273,446 290,468.5 Q307,491 307,520 M224,295 Q198,282 185,257 Q172,232 172,202 Q172,156 194.5,126 Q217,96 255,96 Q277,96 298,105.5 Q319,115 330,134"/> 
            <glyph glyph-name="'" unicode="&#x27;" horiz-adv-x="149" d=" M135,464 L52,464 L38,706 L149,706"/> 
            <glyph glyph-name="(" unicode="&#x28;" horiz-adv-x="306" d=" M306,688 Q289,669 268.5,632.5 Q248,596 230.5,543.5 Q213,491 201,424.5 Q189,358 189,280 Q189,202 201,136 Q213,70 230.5,18 Q248,-34 268.5,-70.5 Q289,-107 306,-126 L219,-188 Q187,-159 157,-116.5 Q127,-74 103.5,-16.5 Q80,41 65.5,115 Q51,189 51,280 Q51,371 65.5,445 Q80,519 103.5,577 Q127,635 157.5,677.5 Q188,720 220,749"/> 
            <glyph glyph-name=")" unicode="&#x29;" horiz-adv-x="275" d=" M19,-126 Q36,-107 56.5,-70.5 Q77,-34 95,18.5 Q113,71 125,137.5 Q137,204 137,282 Q137,360 125,426 Q113,492 95,544 Q77,596 56.5,632.5 Q36,669 19,688 L106,749 Q137,720 167.5,677.5 Q198,635 222,577.5 Q246,520 260.5,446.5 Q275,373 275,282 Q275,191 260.5,117 Q246,43 222,-15 Q198,-73 167.5,-116 Q137,-159 106,-187"/> 
            <glyph glyph-name="*" unicode="&#x2A;" horiz-adv-x="390" d=" M165,546 L152,677 L257,677 L242,546 L359,598 Q367,574 374.5,549.5 Q382,525 390,501 L267,476 L357,378 L272,317 L205,431 L137,317 Q116,332 95,347 Q74,362 53,378 L142,475 Q111,481 80.5,487.5 Q50,494 19,501 L51,598"/> 
            <glyph glyph-name="+" unicode="&#x2B;" horiz-adv-x="431" d=" M291,357 L431,357 L431,251 L291,251 L291,95 L179,95 L179,251 L39,251 L39,357 L179,357 L179,512 L291,512"/> 
            <glyph glyph-name="," unicode="&#x2C;" horiz-adv-x="184" d=" M54,76 Q54,109 72.5,129.5 Q91,150 113,150 Q184,150 184,62 Q182,36 172.5,8.5 Q163,-19 149,-46.5 Q135,-74 118,-100.5 Q101,-127 85,-151 L24,-120 Q38,-94 51.5,-63 Q65,-32 65,-9 Q65,10 59.5,28.5 Q54,47 54,71"/> 
            <glyph glyph-name="-" unicode="&#x2D;" horiz-adv-x="283" d=" M283,226 L36,226 L36,334 L283,334"/> 
            <glyph glyph-name="." unicode="&#x2E;" horiz-adv-x="199" d=" M199,74 Q199,36 177.5,13 Q156,-10 124,-10 Q92,-10 70.5,13 Q49,36 49,74 Q49,112 70.5,135 Q92,158 124,158 Q156,158 177.5,135 Q199,112 199,74"/> 
            <glyph glyph-name="/" unicode="&#x2F;" horiz-adv-x="395" d=" M395,718 Q379,674 349.5,586.5 Q320,499 283.5,384.5 Q247,270 205,136 Q163,2 122,-135 L1,-135 Q42,2 84,136 Q126,270 163,384.5 Q200,499 229,586.5 Q258,674 275,718"/> 
            <glyph glyph-name="0" unicode="&#x30;" horiz-adv-x="480" d=" M480,328 Q480,237 465,172.5 Q450,108 421.5,66.5 Q393,25 351,6 Q309,-13 255,-13 Q201,-13 159,6 Q117,25 88.5,66.5 Q60,108 45.5,172.5 Q31,237 31,328 Q31,419 45.5,484 Q60,549 88.5,590 Q117,631 159,650.5 Q201,670 255,670 Q309,670 351,650.5 Q393,631 421.5,590 Q450,549 465,484 Q480,419 480,328 M343,328 Q343,443 324,505 Q305,567 255,567 Q206,567 187.5,505 Q169,443 169,328 Q169,213 187,151.5 Q205,90 255,90 Q305,90 324,151 Q343,212 343,328"/> 
            <glyph glyph-name="1" unicode="&#x31;" horiz-adv-x="303" d=" M303,658 L303,0 L165,0 L165,519 Q137,496 108.5,473.5 Q80,451 55,432 L-5,517 Q21,538 48.5,559.5 Q76,581 100.5,599.5 Q125,618 146,633.5 Q167,649 180,658"/> 
            <glyph glyph-name="2" unicode="&#x32;" horiz-adv-x="400" d=" M400,0 L16,0 L16,97 Q28,110 50,133 Q72,156 98,186 Q124,216 151,250.5 Q178,285 200,321 Q222,357 236,393.5 Q250,430 250,463 Q250,561 163,561 Q144,561 125.5,558 Q107,555 91,550.5 Q75,546 63,541.5 Q51,537 45,534 Q39,557 33.5,581.5 Q28,606 23,629 Q31,633 47.5,640 Q64,647 86,653.5 Q108,660 135.5,665 Q163,670 194,670 Q292,670 342,624.5 Q392,579 392,492 Q392,435 371.5,381.5 Q351,328 319,279.5 Q287,231 248,188 Q209,145 172,109 Q224,111 279.5,113 Q335,115 400,115"/> 
            <glyph glyph-name="3" unicode="&#x33;" horiz-adv-x="435" d=" M36,638 Q43,641 57.5,646 Q72,651 94,656.5 Q116,662 144,666 Q172,670 205,670 Q304,670 359.5,628 Q415,586 415,505 Q415,445 387,407.5 Q359,370 320,349 Q372,335 403.5,297.5 Q435,260 435,192 Q435,138 417.5,99 Q400,60 369,35 Q338,10 295,-1.5 Q252,-13 200,-13 Q160,-13 127.5,-5.5 Q95,2 70.5,11 Q46,20 30.5,28.5 Q15,37 8,39 L45,135 Q50,133 62.5,127 Q75,121 93,115 Q111,109 133.5,104 Q156,99 180,99 Q230,99 259.5,121.5 Q289,144 289,198 Q289,243 261.5,263 Q234,283 183,283 Q160,283 139.5,282.5 Q119,282 110,282 L110,383 L144,383 Q167,383 187,385 Q207,387 223,394 Q228,396 236,402.5 Q244,409 252,420.5 Q260,432 265.5,447.5 Q271,463 271,483 Q271,523 245.5,541 Q220,559 175,559 Q155,559 135.5,556 Q116,553 100,549 Q84,545 73.5,541 Q63,537 60,536"/> 
            <glyph glyph-name="4" unicode="&#x34;" horiz-adv-x="485" d=" M345,658 L184,283 L295,283 L295,398 L433,418 L433,283 L485,283 L485,171 L433,171 L433,0 L295,0 L295,171 L28,171 L28,261 L203,658"/> 
            <glyph glyph-name="5" unicode="&#x35;" horiz-adv-x="425" d=" M398,658 L398,548 L194,548 L184,404 Q195,409 207.5,412 Q220,415 237,415 Q321,415 373,363 Q425,311 425,206 Q425,147 408,106 Q391,65 361,38.5 Q331,12 290,0 Q249,-12 200,-12 Q160,-12 130,-5 Q100,2 78.5,11.5 Q57,21 43,30 Q29,39 20,43 L56,131 Q65,126 80.5,119.5 Q96,113 115,107.5 Q134,102 154.5,98 Q175,94 194,94 Q239,94 262,123.5 Q285,153 285,208 Q285,260 260.5,287.5 Q236,315 189,315 Q160,315 134,307 Q108,299 100,294 Q91,297 81.5,300 Q72,303 63,305 L90,658"/> 
            <glyph glyph-name="6" unicode="&#x36;" horiz-adv-x="454" d=" M373,580 Q317,556 269.5,513 Q222,470 196,401 Q213,408 236,414 Q259,420 285,420 Q324,420 355,405.5 Q386,391 408,365 Q430,339 442,303 Q454,267 454,225 Q454,166 437.5,121.5 Q421,77 392,47.5 Q363,18 324.5,3 Q286,-12 241,-12 Q197,-12 158.5,3 Q120,18 91.5,49.5 Q63,81 46.5,130.5 Q30,180 30,249 Q30,337 54.5,406 Q79,475 120.5,527 Q162,579 217,615.5 Q272,652 332,676 M246,330 Q224,330 206,321.5 Q188,313 175,299 Q171,280 169.5,258 Q168,236 168,212 Q170,156 190,122 Q210,88 245,88 Q280,88 299,121.5 Q318,155 318,218 Q318,274 298,302 Q278,330 246,330"/> 
            <glyph glyph-name="7" unicode="&#x37;" horiz-adv-x="401" d=" M401,574 Q381,526 355.5,461.5 Q330,397 302.5,322.5 Q275,248 245.5,166 Q216,84 188,0 L42,0 Q56,40 76,93 Q96,146 118,202.5 Q140,259 163,315 Q186,371 205.5,419 Q225,467 239,502 Q253,537 258,552 L13,544 L13,658 L401,658"/> 
            <glyph glyph-name="8" unicode="&#x38;" horiz-adv-x="458" d=" M248,670 Q338,670 388,628 Q438,586 438,505 Q438,445 410,407.5 Q382,370 343,349 Q395,335 426.5,297.5 Q458,260 458,192 Q458,138 442,99 Q426,60 397.5,35 Q369,10 329.5,-1.5 Q290,-13 243,-13 Q196,-13 156.5,-1.5 Q117,10 88.5,35 Q60,60 44,99 Q28,138 28,192 Q28,260 59.5,297.5 Q91,335 143,349 Q104,370 76,407.5 Q48,445 48,505 Q48,545 62.5,576 Q77,607 103.5,628 Q130,649 166.5,659.5 Q203,670 248,670 M174,188 Q174,139 192.5,114.5 Q211,90 243,90 Q275,90 293.5,114.5 Q312,139 312,188 Q312,233 288.5,257.5 Q265,282 223,282 Q199,282 186.5,257.5 Q174,233 174,188 M192,493 Q192,478 193,459.5 Q194,441 200.5,425 Q207,409 221.5,398 Q236,387 263,387 Q275,387 281,397 Q287,407 290,423 Q293,439 293.5,457.5 Q294,476 294,493 Q294,527 280.5,547 Q267,567 243,567 Q218,567 205,547 Q192,527 192,493"/> 
            <glyph glyph-name="9" unicode="&#x39;" horiz-adv-x="449" d=" M106,77 Q162,100 209.5,143 Q257,186 283,256 Q266,249 244.5,243 Q223,237 197,237 Q158,237 126.5,251 Q95,265 72.5,291 Q50,317 38,353 Q26,389 26,433 Q26,491 42.5,535.5 Q59,580 87.5,610 Q116,640 154.5,655 Q193,670 238,670 Q282,670 320.5,655 Q359,640 387.5,608 Q416,576 432.5,527 Q449,478 449,409 Q449,320 424.5,251 Q400,182 358.5,130 Q317,78 262.5,41.5 Q208,5 147,-19 M233,327 Q255,327 273,335.5 Q291,344 303,359 Q311,397 311,448 Q309,505 289,537 Q269,569 234,569 Q199,569 180,535.5 Q161,502 161,439 Q161,382 181,354.5 Q201,327 233,327"/> 
            <glyph glyph-name=":" unicode="&#x3A;" horiz-adv-x="198" d=" M198,401 Q198,363 177,340.5 Q156,318 124,318 Q93,318 71.5,340.5 Q50,363 50,401 Q50,439 71.5,462 Q93,485 124,485 Q156,485 177,462 Q198,439 198,401 M198,93 Q198,55 177,32.5 Q156,10 124,10 Q93,10 71.5,32.5 Q50,55 50,93 Q50,130 71.5,153.5 Q93,177 124,177 Q156,177 177,153.5 Q198,130 198,93"/> 
            <glyph glyph-name=";" unicode="&#x3B;" horiz-adv-x="198" d=" M62,76 Q62,108 80.5,129 Q99,150 121,150 Q192,150 192,62 Q190,36 180.5,8.5 Q171,-19 157,-46.5 Q143,-74 126,-100.5 Q109,-127 93,-151 Q77,-143 62.5,-135.5 Q48,-128 32,-120 Q46,-94 59.5,-63 Q73,-32 73,-9 Q73,10 67.5,28.5 Q62,47 62,71 M198,401 Q198,363 177,340.5 Q156,318 124,318 Q93,318 71.5,340.5 Q50,363 50,401 Q50,439 71.5,462 Q93,485 124,485 Q156,485 177,462 Q198,439 198,401"/> 
            <glyph glyph-name="&lt;" unicode="&#x3C;" horiz-adv-x="371" d=" M47,353 L371,551 L371,446 L191,330 L371,212 L371,109 L47,307"/> 
            <glyph glyph-name="=" unicode="&#x3D;" horiz-adv-x="434" d=" M434,351 L42,351 L42,455 L434,455 M434,152 L42,152 L42,256 L434,256"/> 
            <glyph glyph-name="&gt;" unicode="&#x3E;" horiz-adv-x="394" d=" M394,307 L70,109 L70,212 L250,330 L70,446 L70,551 L394,353"/> 
            <glyph glyph-name="?" unicode="&#x3F;" horiz-adv-x="352" d=" M6,676 Q12,679 24,686 Q36,693 55,699.5 Q74,706 100.5,711.5 Q127,717 162,717 Q201,717 236,707 Q271,697 296.5,676.5 Q322,656 337,624 Q352,592 352,547 Q352,504 340.5,474 Q329,444 312,422 Q295,400 274.5,382.5 Q254,365 237,346 Q220,327 208.5,303.5 Q197,280 197,246 Q188,246 173.5,244.5 Q159,243 143,241.5 Q127,240 113,239 Q99,238 90,238 Q89,244 88.5,250 Q88,256 88,261 Q88,297 97,323.5 Q106,350 119.5,371 Q133,392 149,409.5 Q165,427 178.5,445 Q192,463 201,483.5 Q210,504 210,531 Q210,569 190.5,585 Q171,601 130,601 Q113,601 96.5,598 Q80,595 66.5,591 Q53,587 43.5,582.5 Q34,578 31,576 M218,73 Q218,35 197,13 Q176,-9 144,-9 Q113,-9 91.5,13 Q70,35 70,73 Q70,111 91.5,134 Q113,157 144,157 Q176,157 197,134 Q218,111 218,73"/> 
            <glyph glyph-name="@" unicode="&#x40;" horiz-adv-x="754" d=" M577,-17 Q544,-17 514,0 Q484,17 473,53 Q467,43 457,30.5 Q447,18 433.5,7.5 Q420,-3 402.5,-10 Q385,-17 364,-17 Q338,-17 313.5,-5 Q289,7 269.5,32.5 Q250,58 238,99 Q226,140 226,198 Q226,256 238,299 Q250,342 269.5,370 Q289,398 314.5,412 Q340,426 366,426 Q397,426 421,414.5 Q445,403 465,394 Q467,400 467.5,411.5 Q468,423 469,429 L554,417 L554,126 Q554,100 560.5,81 Q567,62 587,62 Q617,62 634.5,109 Q652,156 652,241 Q652,391 593.5,472 Q535,553 416,553 Q356,553 306.5,531.5 Q257,510 222,466.5 Q187,423 168,358 Q149,293 149,207 Q149,46 216.5,-41.5 Q284,-129 415,-129 Q447,-129 472,-125 Q497,-121 512,-119 L530,-205 Q513,-208 477,-214 Q441,-220 398,-220 Q314,-220 248.5,-189.5 Q183,-159 138,-103.5 Q93,-48 69.5,30.5 Q46,109 46,204 Q46,305 72,386.5 Q98,468 146,525 Q194,582 262.5,613 Q331,644 417,644 Q495,644 557,618 Q619,592 663,542.5 Q707,493 730.5,421.5 Q754,350 754,258 Q754,172 735,118 Q716,64 689,34 Q662,4 631.5,-6.5 Q601,-17 577,-17 M392,69 Q415,69 431,86.5 Q447,104 455,119 L455,320 Q445,328 431,338.5 Q417,349 398,349 Q363,349 347.5,309.5 Q332,270 332,205 Q332,69 392,69"/> 
            <glyph glyph-name="A" unicode="&#x41;" horiz-adv-x="542" d=" M194,658 L362,658 L542,0 L395,0 L365,114 L181,114 L151,0 L11,0 M274,531 Q269,504 260.5,466.5 Q252,429 242.5,386.5 Q233,344 222.5,298.5 Q212,253 202,210 L344,210 Q335,253 324.5,298.5 Q314,344 304.5,386.5 Q295,429 287,466.5 Q279,504 274,531"/> 
            <glyph glyph-name="B" unicode="&#x42;" horiz-adv-x="482" d=" M62,658 Q87,658 134,661 Q181,664 230,664 Q349,664 404,626.5 Q459,589 459,495 Q459,438 435,400 Q411,362 381,343 Q402,336 420.5,324.5 Q439,313 452.5,295 Q466,277 474,251 Q482,225 482,190 Q482,90 423,41.5 Q364,-7 236,-7 Q183,-7 135.5,-3.5 Q88,0 62,0 M235,289 Q224,289 213.5,288.5 Q203,288 195,287 L195,96 Q203,96 211,95.5 Q219,95 227,95 Q286,95 315,117 Q344,139 344,198 Q344,244 316,266.5 Q288,289 235,289 M235,563 Q224,563 213.5,562.5 Q203,562 195,561 L195,370 Q203,370 211,369.5 Q219,369 227,369 Q256,369 275.5,377.5 Q295,386 306.5,400.5 Q318,415 322.5,433 Q327,451 326,471 Q324,517 306,540 Q288,563 235,563"/> 
            <glyph glyph-name="C" unicode="&#x43;" horiz-adv-x="454" d=" M178,328 Q178,269 185,225.5 Q192,182 209,153.5 Q226,125 254,110.5 Q282,96 325,96 Q361,96 391,105.5 Q421,115 435,121 Q440,95 444.5,68.5 Q449,42 454,16 Q448,14 435,9 Q422,4 402.5,-1.5 Q383,-7 357.5,-11 Q332,-15 301,-15 Q167,-15 100,69.5 Q33,154 33,328 Q33,502 100,586.5 Q167,671 301,671 Q332,671 357.5,667 Q383,663 402.5,657.5 Q422,652 435,647 Q448,642 454,640 Q449,614 444.5,587.5 Q440,561 435,535 Q421,541 391,550.5 Q361,560 325,560 Q282,560 254,545.5 Q226,531 209,502.5 Q192,474 185,430 Q178,386 178,328"/> 
            <glyph glyph-name="D" unicode="&#x44;" horiz-adv-x="523" d=" M62,658 Q86,658 131.5,661 Q177,664 236,664 Q305,664 358.5,649.5 Q412,635 448.5,597.5 Q485,560 504,495 Q523,430 523,328 Q523,228 504,163.5 Q485,99 448.5,61 Q412,23 358.5,8 Q305,-7 236,-7 Q178,-7 132,-3.5 Q86,0 62,0 M249,102 Q318,102 349,158.5 Q380,215 380,328 Q380,446 349,500.5 Q318,555 248,555 Q237,555 225,554.5 Q213,554 201,553 L201,103 Q212,102 224,102 Q236,102 249,102"/> 
            <glyph glyph-name="E" unicode="&#x45;" horiz-adv-x="418" d=" M62,0 L62,658 L418,658 L418,545 L202,545 L202,393 L366,393 L366,287 L202,287 L202,113 L418,113 L418,0"/> 
            <glyph glyph-name="F" unicode="&#x46;" horiz-adv-x="406" d=" M372,259 L202,259 L202,0 L62,0 L62,658 L406,658 L406,545 L202,545 L202,365 L372,365"/> 
            <glyph glyph-name="G" unicode="&#x47;" horiz-adv-x="492" d=" M492,16 Q485,14 467.5,9 Q450,4 424.5,-1.5 Q399,-7 367.5,-11 Q336,-15 301,-15 Q167,-15 100,69.5 Q33,154 33,328 Q33,502 100,586.5 Q167,671 301,671 Q332,671 360.5,667 Q389,663 411.5,657.5 Q434,652 450,647 Q466,642 472,640 Q467,614 462.5,587.5 Q458,561 453,535 Q446,538 432,542.5 Q418,547 400,550.5 Q382,554 362.5,557 Q343,560 325,560 Q282,560 254,545.5 Q226,531 209,502.5 Q192,474 185,430 Q178,386 178,328 Q178,269 185,225.5 Q192,182 209,153.5 Q226,125 254,110.5 Q282,96 325,96 Q332,96 338.5,96 Q345,96 353,97 L353,272 L284,272 L284,383 L492,383"/> 
            <glyph glyph-name="H" unicode="&#x48;" horiz-adv-x="518" d=" M518,0 L380,0 L380,272 L201,272 L201,0 L62,0 L62,658 L201,658 L201,383 L380,383 L380,658 L518,658"/> 
            <glyph glyph-name="I" unicode="&#x49;" horiz-adv-x="201" d=" M201,0 L62,0 L62,658 L201,658"/> 
            <glyph glyph-name="J" unicode="&#x4A;" horiz-adv-x="211" d=" M211,130 Q211,37 198,-21 Q185,-79 159.5,-111.5 Q134,-144 97,-155.5 Q60,-167 11,-167 Q3,-167 -5,-166.5 Q-13,-166 -21,-165 Q-19,-139 -17.5,-113.5 Q-16,-88 -14,-62 Q17,-59 37,-29 Q57,-15 65,13.5 Q73,42 73,99 L73,658 L211,658"/> 
            <glyph glyph-name="K" unicode="&#x4B;" horiz-adv-x="537" d=" M62,658 L201,658 L201,370 L362,658 L517,658 L331,360 Q382,269 434,180 Q486,91 537,0 L372,0 L201,321 L201,0 L62,0"/> 
            <glyph glyph-name="L" unicode="&#x4C;" horiz-adv-x="396" d=" M62,0 L62,658 L201,658 L201,113 L396,113 L387,0"/> 
            <glyph glyph-name="M" unicode="&#x4D;" horiz-adv-x="667" d=" M667,0 L527,0 Q526,17 523.5,48.5 Q521,80 518.5,119.5 Q516,159 512.5,203 Q509,247 506.5,287.5 Q504,328 501.5,363 Q499,398 498,419 Q493,403 484.5,373 Q476,343 465.5,307 Q455,271 443.5,231.5 Q432,192 421.5,157.5 Q411,123 403,95.5 Q395,68 391,56 L296,56 Q292,68 283.5,95 Q275,122 264.5,156.5 Q254,191 242.5,230 Q231,269 220,305 Q209,341 200.5,371.5 Q192,402 188,419 L160,0 L25,0 L88,658 L223,658 Q228,644 237.5,613.5 Q247,583 259,543.5 Q271,504 284.5,459.5 Q298,415 310,373.5 Q322,332 331.5,297 Q341,262 346,243 Q351,262 361,296.5 Q371,331 383,372.5 Q395,414 408.5,458.5 Q422,503 434.5,543 Q447,583 456.5,613.5 Q466,644 471,658 L607,658"/> 
            <glyph glyph-name="N" unicode="&#x4E;" horiz-adv-x="516" d=" M516,0 L392,0 L182,415 L181,415 Q181,405 182.5,384.5 Q184,364 184,341 L184,0 L62,0 L62,658 L187,658 Q240,555 291.5,451.5 Q343,348 395,245 L397,245 Q397,255 395.5,276 Q394,297 394,318 L394,658 L516,658"/> 
            <glyph glyph-name="O" unicode="&#x4F;" horiz-adv-x="536" d=" M536,329 Q536,154 470.5,70.5 Q405,-13 284,-13 Q163,-13 98,70.5 Q33,154 33,329 Q33,504 98,587 Q163,670 284,670 Q405,670 470.5,587 Q536,504 536,329 M394,329 Q394,439 368,499 Q342,559 284,559 Q227,559 201.5,499 Q176,439 176,329 Q176,219 201,158.5 Q226,98 284,98 Q343,98 368.5,158.5 Q394,219 394,329"/> 
            <glyph glyph-name="P" unicode="&#x50;" horiz-adv-x="471" d=" M62,658 Q75,658 94.5,659 Q114,660 137,661 Q160,662 185,663 Q210,664 234,664 Q362,664 416.5,607 Q471,550 471,439 Q471,377 453.5,334 Q436,291 405,264.5 Q374,238 333,226.5 Q292,215 244,215 Q231,215 219.5,215.5 Q208,216 197,217 L197,0 L62,0 M239,558 Q229,558 218.5,558 Q208,558 197,557 L197,319 L234,319 Q277,319 304,345 Q331,371 331,439 Q331,500 307,529 Q283,558 239,558"/> 
            <glyph glyph-name="Q" unicode="&#x51;" horiz-adv-x="536" d=" M284,-13 Q163,-13 98,70.5 Q33,154 33,329 Q33,504 98,587 Q163,670 284,670 Q405,670 470.5,587 Q536,504 536,329 Q536,209 505.5,133 Q475,57 416,21 Q445,-5 475.5,-21.5 Q506,-38 525,-46 L464,-138 Q457,-136 438.5,-129.5 Q420,-123 395.5,-108.5 Q371,-94 341.5,-71 Q312,-48 284,-13 M394,329 Q394,439 368,499 Q342,559 284,559 Q227,559 201.5,499 Q176,439 176,329 Q176,219 201,158.5 Q226,98 284,98 Q343,98 368.5,158.5 Q394,219 394,329"/> 
            <glyph glyph-name="R" unicode="&#x52;" horiz-adv-x="497" d=" M62,658 Q88,658 137.5,661 Q187,664 239,664 Q360,664 419.5,616 Q479,568 479,451 Q479,411 470,380.5 Q461,350 445.5,327.5 Q430,305 410,290.5 Q390,276 369,268 L497,0 L350,0 L245,250 Q226,250 212.5,251 Q199,252 194,252 L194,0 L62,0 M256,350 Q296,350 317.5,375.5 Q339,401 339,453 Q339,506 318,532 Q297,558 249,558 Q236,558 222.5,557.5 Q209,557 194,556 L194,353 Q202,353 219.5,351.5 Q237,350 256,350"/> 
            <glyph glyph-name="S" unicode="&#x53;" horiz-adv-x="423" d=" M245,670 Q282,670 311.5,664.5 Q341,659 362.5,651.5 Q384,644 398.5,637 Q413,630 421,627 L389,526 Q381,529 367.5,535.5 Q354,542 337,548.5 Q320,555 300,560.5 Q280,566 260,566 Q237,566 221,558.5 Q205,551 194.5,540 Q184,529 179.5,516 Q175,503 175,493 Q175,463 193.5,441 Q212,419 239.5,400.5 Q267,382 299,363 Q331,344 358.5,320 Q386,296 404.5,263.5 Q423,231 423,185 Q423,91 368,39 Q313,-13 204,-13 Q166,-13 136.5,-6.5 Q107,0 84.5,8.5 Q62,17 46.5,25 Q31,33 23,36 L55,137 Q62,134 75.5,127.5 Q89,121 106.5,114.5 Q124,108 144,102.5 Q164,97 184,97 Q202,97 219.5,101.5 Q237,106 251,115 Q265,124 273.5,138 Q282,152 282,172 Q282,200 263.5,220 Q245,240 217.5,258 Q190,276 158,295 Q126,314 98.5,339 Q71,364 52.5,397.5 Q34,431 34,480 Q34,568 89.5,619 Q145,670 245,670"/> 
            <glyph glyph-name="T" unicode="&#x54;" horiz-adv-x="426" d=" M425,545 L290,545 L290,0 L151,0 L151,545 L15,545 L15,658 L426,658"/> 
            <glyph glyph-name="U" unicode="&#x55;" horiz-adv-x="497" d=" M54,658 L193,658 L193,309 Q193,254 195.5,214.5 Q198,175 206.5,149 Q215,123 231.5,110.5 Q248,98 277,98 Q306,98 322.5,110.5 Q339,123 347.5,149 Q356,175 358,214.5 Q360,254 360,309 L360,658 L497,658 L497,309 Q497,222 485.5,160.5 Q474,99 448,60.5 Q422,22 380,4.5 Q338,-13 277,-13 Q217,-13 174.5,4.5 Q132,22 105,60.5 Q78,99 66,160.5 Q54,222 54,309"/> 
            <glyph glyph-name="V" unicode="&#x56;" horiz-adv-x="522" d=" M196,0 L12,658 L155,658 L255,205 L267,106 L279,205 L379,658 L522,658 L338,0"/> 
            <glyph glyph-name="W" unicode="&#x57;" horiz-adv-x="728" d=" M728,658 L591,0 L460,0 L370,419 L276,0 L147,0 L10,658 L150,658 L231,213 L317,606 L425,606 L511,213 L593,658"/> 
            <glyph glyph-name="X" unicode="&#x58;" horiz-adv-x="535" d=" M188,331 L11,658 L171,658 Q177,644 190.5,613.5 Q204,583 219.5,547.5 Q235,512 249,479.5 Q263,447 269,431 Q275,448 289,480.5 Q303,513 319,548 Q335,583 349,613.5 Q363,644 369,658 L527,658 L350,330 Q397,247 443,165 Q489,83 535,0 L371,0 Q365,14 350.5,45 Q336,76 320,111 Q304,146 289.5,179 Q275,212 269,231 Q262,213 247,180 Q232,147 216,111.5 Q200,76 185.5,45 Q171,14 164,0 L3,0"/> 
            <glyph glyph-name="Y" unicode="&#x59;" horiz-adv-x="530" d=" M334,0 L195,0 L195,217 L177,257 Q132,357 87.5,457 Q43,557 -2,658 L147,658 Q164,612 182,564.5 Q200,517 215.5,474.5 Q231,432 244,397 Q257,362 264,342 Q271,362 284,397 Q297,432 312.5,474.5 Q328,517 346,564.5 Q364,612 381,658 L530,658 Q485,557 440.5,457 Q396,357 351,257 L334,217"/> 
            <glyph glyph-name="Z" unicode="&#x5A;" horiz-adv-x="433" d=" M429,568 Q368,453 307,340 Q246,227 184,112 L433,112 L433,0 L28,0 L28,90 L274,546 L35,546 L35,658 L429,658"/> 
            <glyph glyph-name="[" unicode="&#x5B;" horiz-adv-x="301" d=" M301,-144 L78,-144 L78,761 L301,761 L301,669 L191,669 L191,-52 L301,-52"/> 
            <glyph glyph-name="\" unicode="&#x5C;" horiz-adv-x="390" d=" M116,718 Q158,581 199.5,447 Q241,313 278,198.5 Q315,84 344,-3.5 Q373,-91 390,-135 L269,-135 Q252,-91 223,-3.5 Q194,84 157,198.5 Q120,313 78,447 Q36,581 -5,718"/> 
            <glyph glyph-name="]" unicode="&#x5D;" horiz-adv-x="234" d=" M234,-144 L11,-144 L11,-52 L121,-52 L121,669 L11,669 L11,760 L234,760"/> 
            <glyph glyph-name="^" unicode="&#x5E;" horiz-adv-x="386" d=" M235,676 L386,524 L329,465 Q301,491 273.5,516.5 Q246,542 217,568 Q188,542 160.5,516.5 Q133,491 105,465 L48,524 L199,676"/> 
            <glyph glyph-name="_" unicode="&#x5F;" horiz-adv-x="468" d=" M468,-177 L11,-177 L11,-77 L468,-77"/> 
            <glyph glyph-name="`" unicode="&#x60;" horiz-adv-x="265" d=" M126,794 L265,627 L207,573 L51,721"/> 
            <glyph glyph-name="a" unicode="&#x61;" horiz-adv-x="419" d=" M295,0 Q293,14 291.5,28 Q290,42 288,56 Q283,51 274,40 Q265,29 250,17.5 Q235,6 212.5,-3 Q190,-12 160,-12 Q132,-12 107,-3 Q82,6 63.5,25 Q45,44 34,73 Q23,102 23,143 Q23,238 83,279 Q143,320 262,320 L285,318 L285,330 Q285,361 278.5,379.5 Q272,398 260.5,408 Q249,418 233.5,421 Q218,424 199,424 Q165,424 129.5,416.5 Q94,409 74,402 L59,494 Q71,498 88.5,503.5 Q106,509 127.5,513.5 Q149,518 173,521.5 Q197,525 222,525 Q325,525 372,476.5 Q419,428 419,326 L419,0 M211,86 Q227,86 239,90.5 Q251,95 260,102 Q269,109 275,116.5 Q281,124 285,129 L285,242 Q278,242 271.5,242 Q265,242 258,243 Q201,243 177,225 Q153,207 153,159 Q153,124 167,105 Q181,86 211,86"/> 
            <glyph glyph-name="b" unicode="&#x62;" horiz-adv-x="482" d=" M49,719 L184,739 L184,455 Q194,465 208,477.5 Q222,490 239,500.5 Q256,511 276.5,518 Q297,525 320,525 Q353,525 382.5,510 Q412,495 434,463 Q456,431 469,382 Q482,333 482,264 Q482,197 467.5,146 Q453,95 428.5,61 Q404,27 371.5,10 Q339,-7 302,-7 Q276,-7 256.5,-0.5 Q237,6 222,16 Q207,26 195,37.5 Q183,49 174,59 L163,0 L49,0 M264,411 Q250,411 237.5,406 Q225,401 214.5,393.5 Q204,386 196,378 Q188,370 184,364 L184,136 Q199,125 214.5,116 Q230,107 247,107 Q296,107 319.5,141 Q343,175 343,253 Q343,342 323,376.5 Q303,411 264,411"/> 
            <glyph glyph-name="c" unicode="&#x63;" horiz-adv-x="383" d=" M383,34 Q376,31 363,23.5 Q350,16 331.5,8 Q313,0 289,-6 Q265,-12 236,-12 Q135,-12 81.5,51.5 Q28,115 28,249 Q28,389 83.5,457 Q139,525 245,525 Q287,525 319,517 Q351,509 365,504 L349,405 Q339,409 315,415 Q291,421 264,421 Q214,421 190.5,381.5 Q167,342 167,254 Q167,165 191.5,129 Q216,93 260,93 Q291,93 316,104.5 Q341,116 352,120"/> 
            <glyph glyph-name="d" unicode="&#x64;" horiz-adv-x="460" d=" M460,0 L346,0 L338,60 Q326,47 310.5,34.5 Q295,22 276.5,11.5 Q258,1 235.5,-5.5 Q213,-12 188,-12 Q155,-12 125.5,2.5 Q96,17 74.5,48 Q53,79 40,128 Q27,177 27,246 Q27,323 44,376 Q61,429 90,461.5 Q119,494 157,508.5 Q195,523 237,523 Q258,523 280.5,517 Q303,511 326,501 L326,719 L460,739 M245,101 Q271,101 292.5,116.5 Q314,132 326,149 L326,402 Q312,410 296,415 Q280,420 263,420 Q214,420 190.5,384 Q167,348 167,258 Q167,213 172,183 Q177,153 187,134.5 Q197,116 211.5,108.5 Q226,101 245,101"/> 
            <glyph glyph-name="e" unicode="&#x65;" horiz-adv-x="429" d=" M414,37 Q408,33 394,25 Q380,17 357.5,8.5 Q335,0 305,-6 Q275,-12 238,-12 Q194,-12 156,2.5 Q118,17 89.5,48 Q61,79 44.5,127 Q28,175 28,243 Q28,315 44.5,368 Q61,421 89,456 Q117,491 154.5,508 Q192,525 235,525 Q278,525 313.5,511.5 Q349,498 374.5,468.5 Q400,439 414.5,394 Q429,349 429,286 Q429,259 426.5,239.5 Q424,220 423,216 L162,216 Q163,149 192,119.5 Q221,90 264,90 Q304,90 336.5,103.5 Q369,117 387,125 M234,429 Q221,429 208,422.5 Q195,416 185,401 Q175,386 168.5,361 Q162,336 162,300 L299,300 Q299,338 294,363 Q289,388 280.5,402.5 Q272,417 260,423 Q248,429 234,429"/> 
            <glyph glyph-name="f" unicode="&#x66;" horiz-adv-x="309" d=" M294,415 L202,415 L202,0 L67,0 L67,415 L12,415 L12,514 L67,514 L67,574 Q67,666 99,708 Q131,750 200,750 Q248,750 273.5,742 Q299,734 309,730 Q308,706 307,682 Q306,658 304,634 Q298,636 282,639.5 Q266,643 246,643 Q220,643 211,624 Q202,605 202,555 L202,514 L294,514"/> 
            <glyph glyph-name="g" unicode="&#x67;" horiz-adv-x="460" d=" M206,520 Q250,520 279,499.5 Q308,479 336,444 Q339,461 341.5,479 Q344,497 346,514 L460,514 L460,-42 Q460,-142 414,-191.5 Q368,-241 268,-241 Q241,-241 216,-237.5 Q191,-234 169,-229.5 Q147,-225 130,-219.5 Q113,-214 101,-210 L116,-118 Q136,-125 171.5,-132.5 Q207,-140 244,-140 Q262,-140 277,-137 Q292,-134 303,-124 Q314,-114 320.5,-95.5 Q327,-77 327,-46 L327,57 L326,57 Q316,45 302,33 Q288,21 270.5,11 Q253,1 232.5,-5.5 Q212,-12 188,-12 Q154,-12 124.5,3 Q95,18 73.5,49 Q52,80 39.5,127 Q27,174 27,239 Q27,309 41.5,362 Q56,415 81,450 Q106,485 138,502.5 Q170,520 206,520 M240,102 Q270,102 292.5,120 Q315,138 326,155 L326,359 Q299,388 281,398.5 Q263,409 241,409 Q194,409 180.5,369 Q167,329 167,252 Q167,210 172,181 Q177,152 186.5,134.5 Q196,117 209.5,109.5 Q223,102 240,102"/> 
            <glyph glyph-name="h" unicode="&#x68;" horiz-adv-x="459" d=" M49,719 L184,739 L184,448 L186,448 Q191,453 202.5,465.5 Q214,478 231.5,491.5 Q249,505 273,515 Q297,525 328,525 Q399,525 429,481 Q459,437 459,346 L459,0 L324,0 L324,313 Q324,368 313,388 Q302,408 271,408 Q256,408 242,401 Q228,394 216.5,385 Q205,376 196.5,366.5 Q188,357 184,352 L184,0 L49,0"/> 
            <glyph glyph-name="i" unicode="&#x69;" horiz-adv-x="197" d=" M187,0 L52,0 L52,504 L187,524 M197,671 Q197,635 175,612.5 Q153,590 121,590 Q89,590 67,612.5 Q45,635 45,671 Q45,707 67,730 Q89,753 121,753 Q153,753 175,730 Q197,707 197,671"/> 
            <glyph glyph-name="j" unicode="&#x6A;" horiz-adv-x="199" d=" M57,504 L191,524 L191,-35 Q191,-90 180.5,-128.5 Q170,-167 150,-191 Q130,-215 99.5,-226 Q69,-237 29,-237 Q15,-237 2.5,-235 Q-10,-233 -22,-231 L-16,-132 Q4,-130 18,-124 Q32,-118 40.5,-106 Q49,-94 53,-73.5 Q57,-53 57,-22 M199,671 Q199,635 177,612.5 Q155,590 124,590 Q92,590 69.5,612.5 Q47,635 47,671 Q47,707 69.5,730 Q92,753 124,753 Q155,753 177,730 Q199,707 199,671"/> 
            <glyph glyph-name="k" unicode="&#x6B;" horiz-adv-x="483" d=" M50,719 L184,739 L184,291 L314,514 L465,514 L300,285 L483,0 L322,0 L184,245 L184,0 L50,0"/> 
            <glyph glyph-name="l" unicode="&#x6C;" horiz-adv-x="184" d=" M184,0 L49,0 L49,719 L184,739"/> 
            <glyph glyph-name="m" unicode="&#x6D;" horiz-adv-x="670" d=" M52,514 L171,514 L177,445 Q183,452 193,465 Q203,478 218.5,491.5 Q234,505 255.5,515 Q277,525 306,525 Q350,525 377,508 Q404,491 415,446 Q421,455 432.5,468 Q444,481 460,494 Q476,507 497.5,516 Q519,525 546,525 Q612,525 641,484.5 Q670,444 670,347 L670,0 L536,0 L536,336 Q536,370 528,389 Q520,408 494,408 Q481,408 469.5,401.5 Q458,395 449,386 Q440,377 434,367.5 Q428,358 425,352 L425,0 L296,0 L296,336 Q296,370 288,389 Q280,408 254,408 Q241,408 229.5,401.5 Q218,395 209,386 Q200,377 194,367.5 Q188,358 185,352 L185,0 L52,0"/> 
            <glyph glyph-name="n" unicode="&#x6E;" horiz-adv-x="461" d=" M52,514 L171,514 L177,448 L179,448 Q184,453 196.5,465.5 Q209,478 228,491.5 Q247,505 272.5,515 Q298,525 330,525 Q401,525 431,481 Q461,437 461,346 L461,0 L326,0 L326,313 Q326,368 315,388 Q304,408 273,408 Q258,408 244,401 Q230,394 218.5,385 Q207,376 198.5,366.5 Q190,357 186,352 L186,0 L52,0"/> 
            <glyph glyph-name="o" unicode="&#x6F;" horiz-adv-x="469" d=" M469,257 Q469,184 453,133 Q437,82 408,49.5 Q379,17 338.5,2.5 Q298,-12 248,-12 Q198,-12 157,2.5 Q116,17 87.5,49.5 Q59,82 43.5,133 Q28,184 28,257 Q28,329 43.5,380 Q59,431 87.5,463.5 Q116,496 157,510.5 Q198,525 248,525 Q298,525 338.5,510.5 Q379,496 408,463.5 Q437,431 453,380 Q469,329 469,257 M329,257 Q329,347 309.5,386.5 Q290,426 248,426 Q206,426 186.5,386.5 Q167,347 167,257 Q167,166 186.5,126.5 Q206,87 248,87 Q290,87 309.5,126.5 Q329,166 329,257"/> 
            <glyph glyph-name="p" unicode="&#x70;" horiz-adv-x="482" d=" M49,514 L174,514 L180,446 L182,446 Q189,456 201.5,469.5 Q214,483 231,495.5 Q248,508 270.5,516.5 Q293,525 319,525 Q353,525 382.5,509.5 Q412,494 434,462 Q456,430 469,380.5 Q482,331 482,264 Q482,193 467,141 Q452,89 425.5,55 Q399,21 363,4.5 Q327,-12 285,-12 Q231,-12 183,8 L183,-229 L49,-229 M264,411 Q251,411 238.5,405 Q226,399 215,390 Q204,381 196,371 Q188,361 184,354 L184,98 Q212,85 243,85 Q294,85 318.5,123.5 Q343,162 343,253 Q343,342 323,376.5 Q303,411 264,411"/> 
            <glyph glyph-name="q" unicode="&#x71;" horiz-adv-x="460" d=" M460,-229 L327,-229 L327,57 L326,57 Q317,46 303.5,34 Q290,22 272.5,11.5 Q255,1 234,-5.5 Q213,-12 189,-12 Q155,-12 125.5,2.5 Q96,17 74,48.5 Q52,80 39.5,129 Q27,178 27,247 Q27,314 41.5,365.5 Q56,417 81,451 Q106,485 139,502.5 Q172,520 209,520 Q247,521 276.5,497.5 Q306,474 328,444 Q331,462 332.5,479 Q334,496 336,514 L460,514 M243,102 Q256,102 269,107.5 Q282,113 293,121 Q304,129 312.5,138 Q321,147 326,155 L326,359 Q306,383 284,398.5 Q262,414 238,414 Q202,414 184.5,378.5 Q167,343 167,259 Q167,214 171.5,183.5 Q176,153 185.5,135 Q195,117 209.5,109.5 Q224,102 243,102"/> 
            <glyph glyph-name="r" unicode="&#x72;" horiz-adv-x="329" d=" M186,0 L52,0 L52,514 L171,514 L178,445 L179,445 Q196,480 226,503 Q256,526 290,526 Q305,526 314.5,522.5 Q324,519 329,517 L319,398 Q310,400 295,404.5 Q280,409 265,409 Q245,409 228,396.5 Q211,384 186,354"/> 
            <glyph glyph-name="s" unicode="&#x73;" horiz-adv-x="355" d=" M41,118 Q47,116 59,110.5 Q71,105 87,99.5 Q103,94 120.5,90 Q138,86 155,86 Q184,86 200,95 Q216,104 216,133 Q216,154 202.5,170.5 Q189,187 168,202.5 Q147,218 123.5,235 Q100,252 79,272.5 Q58,293 44.5,318.5 Q31,344 31,379 Q31,448 76,486.5 Q121,525 204,525 Q255,525 288,517 Q321,509 335,504 Q333,479 331,454.5 Q329,430 327,406 Q316,409 286,417 Q256,425 225,425 Q161,425 161,385 Q161,366 175.5,350.5 Q190,335 211.5,320 Q233,305 258,288.5 Q283,272 304.5,251.5 Q326,231 340.5,204 Q355,177 355,141 Q355,109 345,81 Q335,53 313.5,32.5 Q292,12 258.5,0 Q225,-12 178,-12 Q146,-12 120,-7 Q94,-2 74,4.5 Q54,11 40,17.5 Q26,24 18,28"/> 
            <glyph glyph-name="t" unicode="&#x74;" horiz-adv-x="316" d=" M311,514 L311,415 L201,415 L201,168 Q201,135 209,119 Q217,103 240,103 Q263,103 280.5,110 Q298,117 303,118 L316,22 Q310,20 299.5,14.5 Q289,9 274,3 Q259,-3 239,-7.5 Q219,-12 195,-12 Q125,-12 96,24.5 Q67,61 67,149 L67,415 L12,415 L12,514 L67,514 L67,638 L201,658 L201,514"/> 
            <glyph glyph-name="u" unicode="&#x75;" horiz-adv-x="457" d=" M457,0 L340,0 L332,69 L304,44 Q298,39 287.5,29.5 Q277,20 261,11 Q245,2 224.5,-5 Q204,-12 179,-12 Q108,-12 77.5,32 Q47,76 47,167 L47,514 L182,514 L182,234 Q182,197 183.5,172.5 Q185,148 191,133 Q197,118 208,112 Q219,106 237,106 Q251,106 264,112.5 Q277,119 288.5,128 Q300,137 308.5,147 Q317,157 322,163 L322,514 L457,514"/> 
            <glyph glyph-name="v" unicode="&#x76;" horiz-adv-x="457" d=" M160,0 L9,514 L147,514 L196,301 L233,87 L270,301 L319,514 L457,514 L306,0"/> 
            <glyph glyph-name="w" unicode="&#x77;" horiz-adv-x="690" d=" M690,514 L554,0 L426,0 L348,334 L264,0 L141,0 L11,514 L144,514 L219,166 L297,514 L409,514 L491,166 L562,514"/> 
            <glyph glyph-name="x" unicode="&#x78;" horiz-adv-x="451" d=" M442,514 Q408,451 374,388 Q340,325 305,262 L451,0 L307,0 Q301,11 290,35 Q279,59 266.5,87.5 Q254,116 242.5,143.5 Q231,171 225,188 Q219,171 208,143.5 Q197,116 185,87.5 Q173,59 162.5,35 Q152,11 147,0 L5,0 L151,266 L15,514 L160,514 Q165,504 174.5,480 Q184,456 195,429 Q206,402 216,376 Q226,350 231,335 Q232,335 237,348 Q242,361 249.5,380.5 Q257,400 266,422.5 Q275,445 282.5,465 Q290,485 295,499 Q300,513 301,514 L442,514"/> 
            <glyph glyph-name="y" unicode="&#x79;" horiz-adv-x="453" d=" M453,514 L284,-29 Q268,-80 246.5,-113.5 Q225,-147 202.5,-169 Q180,-191 158.5,-203.5 Q137,-216 121,-225 Q116,-218 107.5,-207 Q99,-196 90.5,-184 Q82,-172 74,-161 Q66,-150 61,-143 Q67,-138 81.5,-128.5 Q96,-119 113,-103 Q130,-87 145.5,-64.5 Q161,-42 169,-11 L7,514 L148,514 Q152,499 158.5,471.5 Q165,444 173,410 Q181,376 190,338 Q199,300 207,264 Q215,228 221.5,196.5 Q228,165 232,144 Q238,176 250,229.5 Q262,283 274.5,338.5 Q287,394 299,442.5 Q311,491 317,514"/> 
            <glyph glyph-name="z" unicode="&#x7A;" horiz-adv-x="359" d=" M356,430 L171,103 L359,103 L359,0 L22,0 L22,87 L205,411 L34,411 L34,514 L356,514"/> 
            <glyph glyph-name="{" unicode="&#x7B;" horiz-adv-x="314" d=" M116,577 Q116,645 126.5,686 Q137,727 160,748.5 Q183,770 221,777 Q259,784 314,784 L314,698 Q280,698 262.5,691.5 Q245,685 237.5,670 Q230,655 229,632 Q228,609 228,576 L228,419 Q228,332 156,302 Q228,269 228,182 L228,22 Q228,-14 229,-37.5 Q230,-61 238,-75 Q246,-89 263.5,-94.5 Q281,-100 314,-100 L314,-186 Q255,-186 217,-177.5 Q179,-169 156.5,-146 Q134,-123 125,-82.5 Q116,-42 116,22 L116,145 Q116,207 99.5,229.5 Q83,252 43,254 L43,349 Q57,350 70,353.5 Q83,357 93.5,365.5 Q104,374 110,388 Q116,402 116,425"/> 
            <glyph glyph-name="|" unicode="&#x7C;" horiz-adv-x="188" d=" M188,-229 L80,-229 L80,772 L188,772"/> 
            <glyph glyph-name="}" unicode="&#x7D;" horiz-adv-x="287" d=" M287,252 Q269,251 255,246.5 Q241,242 232,231 Q223,220 218.5,201 Q214,182 214,151 L214,16 Q214,-52 203,-92 Q192,-132 168,-153 Q144,-174 106,-180 Q68,-186 15,-186 L15,-100 Q48,-100 65.5,-94 Q83,-88 91.5,-74 Q100,-60 101,-38 Q102,-16 102,16 L102,182 Q102,266 174,299 Q102,332 102,419 L102,576 Q102,612 101,635.5 Q100,659 91.5,673 Q83,687 65.5,692.5 Q48,698 15,698 L15,784 Q72,784 110.5,776.5 Q149,769 172,747 Q195,725 204.5,686 Q214,647 214,583 L214,450 Q214,419 218,399.5 Q222,380 231,369 Q240,358 254,353 Q268,348 287,347"/> 
            <glyph glyph-name="~" unicode="&#x7E;" horiz-adv-x="486" d=" M354,368 Q370,368 383.5,373 Q397,378 407.5,384.5 Q418,391 426,398.5 Q434,406 438,411 L486,350 Q477,338 464,321.5 Q451,305 434,290.5 Q417,276 396,265.5 Q375,255 348,255 Q319,255 297,267 Q275,279 255.5,293 Q236,307 217.5,319 Q199,331 178,331 Q162,331 147,325.5 Q132,320 120,312.5 Q108,305 99.5,297 Q91,289 87,284 Q75,301 63,317.5 Q51,334 38,351 Q47,363 61.5,379.5 Q76,396 95,410.5 Q114,425 136.5,435.5 Q159,446 184,446 Q214,446 236,434 Q258,422 277.5,407 Q297,392 315,380 Q333,368 354,368"/> 
            <glyph glyph-name="¡" unicode="&#xA1;" horiz-adv-x="218" d=" M82,251 L202,251 Q207,139 210.5,29.5 Q214,-80 218,-192 L65,-192 M213,436 Q213,398 191.5,375 Q170,352 138,352 Q106,352 85,375 Q64,398 64,436 Q64,473 85,496.5 Q106,520 138,520 Q170,520 191.5,496.5 Q213,473 213,436"/> 
            <glyph glyph-name="¢" unicode="&#xA2;" horiz-adv-x="386" d=" M386,115 Q380,113 370,107 Q360,101 346,94 Q332,87 314.5,81 Q297,75 275,72 Q276,48 276.5,23.5 Q277,-1 277,-25 L177,-25 Q177,0 177.5,24.5 Q178,49 179,74 Q108,90 68.5,150 Q29,210 29,320 Q29,432 68.5,495 Q108,558 179,577 Q178,603 177.5,630 Q177,657 177,683 L277,683 Q277,658 276.5,633.5 Q276,609 275,583 Q307,581 332.5,574.5 Q358,568 369,563 Q364,539 360,515 Q356,491 352,467 Q342,471 317.5,477 Q293,483 265,483 Q216,483 192,445.5 Q168,408 168,325 Q168,245 191.5,209 Q215,173 260,173 Q292,173 318,183.5 Q344,194 355,199"/> 
            <glyph glyph-name="£" unicode="&#xA3;" horiz-adv-x="467" d=" M380,302 L248,302 Q249,286 249.5,267 Q250,248 250,229 Q250,194 246,162.5 Q242,131 233,104 L467,104 L467,0 L49,0 L49,88 Q72,102 86.5,119 Q101,136 109,162 L109,226 Q109,248 108.5,266.5 Q108,285 107,302 L40,302 L40,382 L100,382 Q98,404 97,432 Q96,460 96,482 Q96,576 144,623 Q192,670 283,670 Q341,670 380,658.5 Q419,647 436,640 L419,544 Q406,549 377.5,557 Q349,565 315,565 Q274,565 256,543.5 Q238,522 238,475 Q238,452 239,427.5 Q240,403 241,382 L380,382"/> 
            <glyph glyph-name="¥" unicode="&#xA5;" horiz-adv-x="485" d=" M441,162 L316,162 L316,0 L180,0 L180,162 L51,162 L51,236 L177,236 L164,298 L51,298 L51,372 L135,372 Q106,444 77.5,515 Q49,586 20,658 L170,658 L256,388 Q284,465 305.5,529.5 Q327,594 348,658 L485,658 Q456,590 424,516.5 Q392,443 358,372 L441,372 L441,298 L332,298 Q328,282 325,267 Q322,252 319,236 L441,236"/> 
            <glyph glyph-name="¦" unicode="&#xA6;" horiz-adv-x="188" d=" M188,-229 L78,-229 L78,139 L188,139 M188,405 L78,405 L78,772 L188,772"/> 
            <glyph glyph-name="§" unicode="&#xA7;" horiz-adv-x="414" d=" M384,644 Q382,621 380,599 Q378,577 376,554 Q372,555 361,558 Q350,561 334.5,564 Q319,567 301,569.5 Q283,572 267,572 Q229,572 211.5,557.5 Q194,543 194,522 Q194,502 210.5,489 Q227,476 251,464 Q275,452 304,439.5 Q333,427 357,408.5 Q381,390 397.5,362.5 Q414,335 414,295 Q414,273 407.5,253 Q401,233 390.5,216 Q380,199 368,186 Q356,173 346,164 Q368,148 383,122 Q398,96 398,62 Q398,-10 353.5,-52.5 Q309,-95 212,-95 Q178,-95 151,-89.5 Q124,-84 103,-76.5 Q82,-69 67.5,-61.5 Q53,-54 45,-50 L69,34 Q75,32 86,26.5 Q97,21 112.5,15 Q128,9 147.5,4.5 Q167,0 189,0 Q221,0 242,16 Q263,32 263,55 Q263,76 250.5,92 Q238,108 204,119 Q177,130 149,142 Q121,154 97.5,172.5 Q74,191 59,217.5 Q44,244 44,285 Q44,307 51,327 Q58,347 68,363.5 Q78,380 90,393 Q102,406 113,415 Q89,434 75,460.5 Q61,487 61,520 Q61,592 105.5,631 Q150,670 236,670 Q293,670 332,659 Q371,648 384,644 M196,372 Q171,367 161.5,347.5 Q152,328 152,308 Q152,285 159,272 Q166,259 181,249.5 Q196,240 219.5,230.5 Q243,221 276,205 Q285,216 294.5,231.5 Q304,247 304,268 Q304,305 277,329 Q250,353 196,372"/> 
            <glyph glyph-name="¨" unicode="&#xA8;" horiz-adv-x="359" d=" M359,672 Q359,638 339.5,617 Q320,596 291,596 Q262,596 243,617 Q224,638 224,672 Q224,706 243,727 Q262,748 291,748 Q320,748 339.5,727 Q359,706 359,672 M167,672 Q167,638 148.5,617 Q130,596 101,596 Q72,596 52.5,617 Q33,638 33,672 Q33,706 52.5,727 Q72,748 101,748 Q130,748 148.5,727 Q167,706 167,672"/> 
            <glyph glyph-name="©" unicode="&#xA9;" horiz-adv-x="640" d=" M640,328 Q640,250 617.5,187 Q595,124 555.5,79.5 Q516,35 461.5,10.5 Q407,-14 344,-14 Q281,-14 226.5,10.5 Q172,35 132.5,79.5 Q93,124 70.5,187 Q48,250 48,328 Q48,406 70.5,469.5 Q93,533 133,578 Q173,623 227,647.5 Q281,672 344,672 Q407,672 461,647.5 Q515,623 555,578 Q595,533 617.5,469.5 Q640,406 640,328 M561,328 Q561,389 544,438 Q527,487 497.5,522 Q468,557 428.5,576 Q389,595 343,595 Q298,595 258.5,576 Q219,557 189.5,522 Q160,487 143.5,438 Q127,389 127,328 Q127,267 143.5,218 Q160,169 189.5,134.5 Q219,100 258.5,81 Q298,62 343,62 Q389,62 428.5,81 Q468,100 497.5,134.5 Q527,169 544,218 Q561,267 561,328 M300,326 Q300,263 317.5,238 Q335,213 370,213 Q387,213 404,216.5 Q421,220 428,223 Q432,206 435,190 Q438,174 441,158 Q431,154 412,147.5 Q393,141 357,141 Q288,141 252,186.5 Q216,232 216,326 Q216,420 252,465.5 Q288,511 357,511 Q393,511 412,504.5 Q431,498 441,494 Q438,478 435,462 Q432,446 428,429 Q421,432 404,435.5 Q387,439 370,439 Q335,439 317.5,414 Q300,389 300,326"/> 
            <glyph glyph-name="ª" unicode="&#xAA;" horiz-adv-x="333" d=" M244,250 L238,291 Q226,275 201,257.5 Q176,240 135,240 Q89,240 57.5,271 Q26,302 26,371 Q26,413 40,440 Q54,467 78.5,483 Q103,499 136,505.5 Q169,512 206,512 Q211,511 217,510.5 Q223,510 229,510 L229,527 Q229,564 213,576 Q197,588 171,588 Q140,588 112.5,582.5 Q85,577 66,570 L57,648 Q79,656 115,664.5 Q151,673 190,673 Q268,673 300.5,633.5 Q333,594 333,519 L333,250 M170,316 Q191,316 206,328 Q221,340 229,351 L229,448 L186,448 Q155,446 141.5,425.5 Q128,405 128,379 Q128,353 139,334.5 Q150,316 170,316"/> 
            <glyph glyph-name="«" unicode="&#xAB;" horiz-adv-x="439" d=" M254,403 Q229,370 205,336 Q181,302 156,269 L255,135 L192,76 L42,268 L192,457 M342,269 Q366,235 390.5,202 Q415,169 439,136 Q423,121 408,106 Q393,91 377,77 Q340,125 303,172.5 Q266,220 228,268 L377,456 L438,402"/> 
            <glyph glyph-name="¬" unicode="&#xAC;" horiz-adv-x="429" d=" M429,102 L319,102 L319,271 L48,271 L48,377 L429,377"/> 
            <glyph glyph-name="®" unicode="&#xAE;" horiz-adv-x="543" d=" M543,478 Q543,410 524,356 Q505,302 472,264 Q439,226 393.5,205.5 Q348,185 296,185 Q243,185 197.5,205.5 Q152,226 119,264 Q86,302 67,356 Q48,410 48,478 Q48,546 67,600 Q86,654 119.5,692 Q153,730 198.5,750 Q244,770 296,770 Q348,770 393,750 Q438,730 471.5,692 Q505,654 524,600 Q543,546 543,478 M478,478 Q478,532 464,574.5 Q450,617 425,646 Q400,675 367,690.5 Q334,706 295,706 Q256,706 223,690.5 Q190,675 165.5,646 Q141,617 127,574.5 Q113,532 113,478 Q113,424 127,381.5 Q141,339 165.5,310 Q190,281 223,266 Q256,251 295,251 Q334,251 367,266 Q400,281 425,310 Q450,339 464,381.5 Q478,424 478,478 M210,625 Q220,625 238,627 Q256,629 288,629 Q339,629 367,609.5 Q395,590 395,537 Q395,502 379,481 Q363,460 335,450 L404,330 L336,330 L291,420 Q277,425 266,431 L266,330 L210,330 M266,579 L266,480 Q291,480 313.5,492.5 Q336,505 336,533 Q336,559 326,569 Q316,579 293,579"/> 
            <glyph glyph-name="¯" unicode="&#xAF;" horiz-adv-x="340" d=" M340,626 L85,626 L85,706 L340,706"/> 
            <glyph glyph-name="°" unicode="&#xB0;" horiz-adv-x="365" d=" M365,531 Q365,489 353.5,455.5 Q342,422 321,398.5 Q300,375 271.5,362 Q243,349 209,349 Q175,349 146,362 Q117,375 96,398.5 Q75,422 63,455.5 Q51,489 51,531 Q51,573 63,606 Q75,639 96.5,662.5 Q118,686 147,698.5 Q176,711 209,711 Q242,711 270.5,698.5 Q299,686 320,662.5 Q341,639 353,606 Q365,573 365,531 M277,531 Q277,573 257.5,595.5 Q238,618 209,618 Q180,618 160.5,595.5 Q141,573 141,531 Q141,490 160.5,466.5 Q180,443 209,443 Q238,443 257.5,466.5 Q277,490 277,531"/> 
            <glyph glyph-name="±" unicode="&#xB1;" horiz-adv-x="446" d=" M304,441 L434,441 L434,336 L304,336 L304,193 L194,193 L194,336 L63,336 L63,441 L194,441 L194,583 L304,583 M446,7 L49,7 L49,112 L446,112"/> 
            <glyph glyph-name="²" unicode="&#xB2;" horiz-adv-x="291" d=" M291,215 L16,215 L16,292 Q29,306 55.5,334.5 Q82,363 109,398 Q136,433 156,470.5 Q176,508 176,540 Q176,572 160.5,585.5 Q145,599 114,599 Q89,599 66.5,592.5 Q44,586 36,582 L19,658 Q31,664 62.5,674.5 Q94,685 138,685 Q209,685 247,651.5 Q285,618 285,554 Q285,518 272,484.5 Q259,451 238,420 Q217,389 191,360 Q165,331 139,305 L291,305"/> 
            <glyph glyph-name="³" unicode="&#xB3;" horiz-adv-x="305" d=" M25,657 Q35,661 65.5,670 Q96,679 143,679 Q212,679 251,650 Q290,621 290,564 Q290,522 270.5,495.5 Q251,469 224,454 Q260,445 282.5,418.5 Q305,392 305,344 Q305,306 293,279 Q281,252 259,234.5 Q237,217 206.5,209 Q176,201 140,201 Q112,201 89,206 Q66,211 49,217.5 Q32,224 21,229.5 Q10,235 6,237 L32,305 Q35,303 44,299 Q53,295 65.5,290.5 Q78,286 93.5,282.5 Q109,279 126,279 Q161,279 181.5,295 Q202,311 202,349 Q202,381 182.5,394.5 Q163,408 128,408 Q112,408 97.5,407.5 Q83,407 77,407 L77,478 L101,478 Q117,478 131,479.5 Q145,481 156,486 Q164,489 177,504.5 Q190,520 190,548 Q190,576 172,588.5 Q154,601 123,601 Q94,601 70,594 Q46,587 42,585"/> 
            <glyph glyph-name="´" unicode="&#xB4;" horiz-adv-x="316" d=" M316,721 Q277,683 237.5,647 Q198,611 159,573 L101,627 L240,794"/> 
            <glyph glyph-name="µ" unicode="&#xB5;" horiz-adv-x="458" d=" M458,0 L337,0 L332,58 Q330,58 323,47 Q316,36 303.5,23 Q291,10 272,-1 Q253,-12 228,-12 Q211,-12 200.5,-5 Q190,2 181,12 L181,-229 L49,-229 L49,514 L184,514 L184,234 Q184,158 197.5,129 Q211,100 248,100 Q264,100 277.5,107.5 Q291,115 301,127 Q311,139 316.5,155 Q322,171 323,188 L323,514 L458,514"/> 
            <glyph glyph-name="·" unicode="&#xB7;" horiz-adv-x="208" d=" M208,335 Q208,297 187,274 Q166,251 134,251 Q102,251 80.5,274 Q59,297 59,335 Q59,372 80.5,395.5 Q102,419 134,419 Q166,419 187,395.5 Q208,372 208,335"/> 
            <glyph glyph-name="¸" unicode="&#xB8;" horiz-adv-x="291" d=" M213,2 Q212,-4 207.5,-14 Q203,-24 206,-35 Q207,-38 220,-43 Q232,-49 244.5,-56.5 Q257,-64 267.5,-76 Q278,-88 284.5,-104 Q291,-120 291,-142 Q291,-190 258,-215 Q225,-240 174,-240 Q156,-240 141,-235.5 Q126,-231 114,-225 Q102,-219 94,-213.5 Q86,-208 83,-206 L110,-154 Q115,-156 128.5,-165 Q142,-174 159,-174 Q178,-174 189.5,-165 Q201,-156 201,-138 Q201,-125 188.5,-117 Q176,-109 162,-102.5 Q148,-96 137.5,-90 Q127,-84 130,-73 L153,2"/> 
            <glyph glyph-name="¹" unicode="&#xB9;" horiz-adv-x="212" d=" M212,678 L212,213 L109,213 L109,567 Q91,550 72.5,534 Q54,518 37,504 L-4,570 Q35,605 71,634.5 Q107,664 127,678"/> 
            <glyph glyph-name="º" unicode="&#xBA;" horiz-adv-x="364" d=" M364,457 Q364,401 352,360.5 Q340,320 318.5,294 Q297,268 266,255.5 Q235,243 197,243 Q159,243 128,255.5 Q97,268 75.5,294 Q54,320 42,360.5 Q30,401 30,457 Q30,569 75.5,619.5 Q121,670 197,670 Q273,670 318.5,619.5 Q364,569 364,457 M262,457 Q262,584 197,584 Q132,584 132,458 Q132,329 197,329 Q262,329 262,457"/> 
            <glyph glyph-name="»" unicode="&#xBB;" horiz-adv-x="436" d=" M100,456 L249,266 L100,77 L39,131 L135,265 L38,398 M285,457 L436,266 Q398,218 360.5,171 Q323,124 285,76 L224,130 Q248,164 272,197.5 Q296,231 321,265 Q296,298 271.5,332 Q247,366 223,399"/> 
            <glyph glyph-name="¼" unicode="&#xBC;" horiz-adv-x="770" d=" M672,361 L559,98 L637,98 L637,179 L733,193 L733,98 L770,98 L770,20 L733,20 L733,-100 L637,-100 L637,20 L450,20 L450,83 L572,361 M212,678 L212,213 L109,213 L109,567 Q91,550 72.5,534 Q54,518 37,504 L-4,570 Q35,605 71,634.5 Q107,664 127,678 M280,11 Q254,14 230,17.5 Q206,21 180,25 L497,630 L596,617"/> 
            <glyph glyph-name="½" unicode="&#xBD;" horiz-adv-x="769" d=" M212,678 L212,213 L109,213 L109,567 Q91,550 72.5,534 Q54,518 37,504 L-4,570 Q35,605 71,634.5 Q107,664 127,678 M280,11 Q254,14 230,17.5 Q206,21 180,25 L497,630 L596,617 M769,-100 L494,-100 L494,-23 Q507,-9 533.5,19 Q560,47 587,82 Q614,117 634,154.5 Q654,192 654,224 Q654,256 638.5,269.5 Q623,283 592,283 Q567,283 544.5,276.5 Q522,270 514,266 L497,342 Q509,348 540.5,358.5 Q572,369 616,369 Q687,369 725,335.5 Q763,302 763,238 Q763,202 750,168.5 Q737,135 716,104 Q695,73 669,44.5 Q643,16 617,-10 L769,-10"/> 
            <glyph glyph-name="¾" unicode="&#xBE;" horiz-adv-x="859" d=" M40,658 Q50,662 80.5,671 Q111,680 158,680 Q227,680 266,651 Q305,622 305,565 Q305,523 285.5,496.5 Q266,470 239,455 Q275,446 297.5,419.5 Q320,393 320,345 Q320,307 308,280 Q296,253 274,235.5 Q252,218 221.5,210 Q191,202 155,202 Q127,202 104,207 Q81,212 64,218.5 Q47,225 36,230.5 Q25,236 21,238 L47,306 Q50,304 59,300 Q68,296 80.5,291.5 Q93,287 108.5,283.5 Q124,280 141,280 Q176,280 196.5,296 Q217,312 217,350 Q217,382 197.5,395.5 Q178,409 143,409 Q127,409 112.5,408.5 Q98,408 92,408 L92,479 L116,479 Q132,479 146,480.5 Q160,482 171,487 Q178,489 191.5,505 Q205,521 205,549 Q205,577 187,589.5 Q169,602 138,602 Q109,602 85,595 Q61,588 57,586 M761,361 L648,98 L726,98 L726,179 L822,193 L822,98 L859,98 L859,20 L822,20 L822,-100 L726,-100 L726,20 L539,20 L539,83 L661,361 M369,11 Q343,14 319,17.5 Q295,21 269,25 L586,630 L685,617"/> 
            <glyph glyph-name="¿" unicode="&#xBF;" horiz-adv-x="354" d=" M354,-167 Q348,-171 335.5,-178 Q323,-185 304,-192 Q285,-199 258.5,-204 Q232,-209 198,-209 Q159,-209 124.5,-199 Q90,-189 64,-168.5 Q38,-148 23,-116 Q8,-84 8,-39 Q8,3 19.5,32 Q31,61 48,83 Q65,105 85.5,122.5 Q106,140 123,159 Q140,178 151.5,200.5 Q163,223 163,255 L163,261 Q172,261 186.5,262 Q201,263 217,264.5 Q233,266 247.5,267.5 Q262,269 271,269 Q271,264 271.5,259.5 Q272,255 272,250 Q272,213 263,186.5 Q254,160 240.5,139 Q227,118 211.5,100.5 Q196,83 182.5,65 Q169,47 160,26 Q151,5 151,-23 Q151,-58 168.5,-76 Q186,-94 226,-94 Q244,-94 261,-91 Q278,-88 292,-83.5 Q306,-79 316,-74.5 Q326,-70 330,-68 M290,436 Q290,398 268.5,375.5 Q247,353 216,353 Q184,353 163,375.5 Q142,398 142,436 Q142,473 163,496.5 Q184,520 216,520 Q247,520 268.5,496.5 Q290,473 290,436"/> 
            <glyph glyph-name="À" unicode="&#xC0;" horiz-adv-x="542" d=" M194,658 L362,658 L542,0 L395,0 L365,114 L181,114 L151,0 L11,0 M274,531 Q269,504 260.5,466.5 Q252,429 242.5,386.5 Q233,344 222.5,298.5 Q212,253 202,210 L344,210 Q335,253 324.5,298.5 Q314,344 304.5,386.5 Q295,429 287,466.5 Q279,504 274,531 M217,938 L356,771 L298,717 L142,865"/> 
            <glyph glyph-name="Á" unicode="&#xC1;" horiz-adv-x="542" d=" M194,658 L362,658 L542,0 L395,0 L365,114 L181,114 L151,0 L11,0 M274,531 Q269,504 260.5,466.5 Q252,429 242.5,386.5 Q233,344 222.5,298.5 Q212,253 202,210 L344,210 Q335,253 324.5,298.5 Q314,344 304.5,386.5 Q295,429 287,466.5 Q279,504 274,531 M415,865 Q376,827 336.5,791 Q297,755 258,717 L200,771 L339,938"/> 
            <glyph glyph-name="Â" unicode="&#xC2;" horiz-adv-x="542" d=" M194,658 L362,658 L542,0 L395,0 L365,114 L181,114 L151,0 L11,0 M274,531 Q269,504 260.5,466.5 Q252,429 242.5,386.5 Q233,344 222.5,298.5 Q212,253 202,210 L344,210 Q335,253 324.5,298.5 Q314,344 304.5,386.5 Q295,429 287,466.5 Q279,504 274,531 M431,816 L382,745 L276,822 L169,745 L121,815 L240,928 L305,928"/> 
            <glyph glyph-name="Ã" unicode="&#xC3;" horiz-adv-x="542" d=" M194,658 L362,658 L542,0 L395,0 L365,114 L181,114 L151,0 L11,0 M274,531 Q269,504 260.5,466.5 Q252,429 242.5,386.5 Q233,344 222.5,298.5 Q212,253 202,210 L344,210 Q335,253 324.5,298.5 Q314,344 304.5,386.5 Q295,429 287,466.5 Q279,504 274,531 M461,842 Q453,831 442.5,815.5 Q432,800 417.5,785 Q403,770 384.5,759.5 Q366,749 341,749 Q320,749 303.5,755 Q287,761 272,768.5 Q257,776 242.5,782.5 Q228,789 212,789 Q200,789 188.5,785 Q177,781 168,775 Q159,769 152,763 Q145,757 142,753 L92,798 Q101,808 112,824 Q123,840 137.5,854 Q152,868 171,878.5 Q190,889 215,889 Q236,889 253,882.5 Q270,876 285,868 Q300,860 314,853.5 Q328,847 344,847 Q356,847 367,851.5 Q378,856 387,862 Q396,868 402,873.5 Q408,879 410,882"/> 
            <glyph glyph-name="Ä" unicode="&#xC4;" horiz-adv-x="542" d=" M194,658 L362,658 L542,0 L395,0 L365,114 L181,114 L151,0 L11,0 M274,531 Q269,504 260.5,466.5 Q252,429 242.5,386.5 Q233,344 222.5,298.5 Q212,253 202,210 L344,210 Q335,253 324.5,298.5 Q314,344 304.5,386.5 Q295,429 287,466.5 Q279,504 274,531 M439,816 Q439,782 419.5,761 Q400,740 371,740 Q342,740 323,761 Q304,782 304,816 Q304,850 323,871 Q342,892 371,892 Q400,892 419.5,871 Q439,850 439,816 M247,816 Q247,782 228.5,761 Q210,740 181,740 Q152,740 132.5,761 Q113,782 113,816 Q113,850 132.5,871 Q152,892 181,892 Q210,892 228.5,871 Q247,850 247,816"/> 
            <glyph glyph-name="Å" unicode="&#xC5;" horiz-adv-x="542" d=" M194,658 L362,658 L542,0 L395,0 L365,114 L181,114 L151,0 L11,0 M274,531 Q269,504 260.5,466.5 Q252,429 242.5,386.5 Q233,344 222.5,298.5 Q212,253 202,210 L344,210 Q335,253 324.5,298.5 Q314,344 304.5,386.5 Q295,429 287,466.5 Q279,504 274,531 M382,854 Q382,804 352,771.5 Q322,739 276,739 Q229,739 199.5,771.5 Q170,804 170,854 Q170,903 200,935 Q230,967 276,967 Q298,967 317.5,958.5 Q337,950 351,935 Q365,920 373.5,899 Q382,878 382,854 M320,854 Q320,877 308,891.5 Q296,906 276,906 Q256,906 243.5,891.5 Q231,877 231,854 Q231,831 243.5,816 Q256,801 276,801 Q296,801 308,816 Q320,831 320,854"/> 
            <glyph glyph-name="Æ" unicode="&#xC6;" horiz-adv-x="648" d=" M292,0 L292,114 L181,114 L151,0 L11,0 L194,658 L648,658 L648,545 L432,545 L432,393 L596,393 L596,287 L432,287 L432,113 L648,113 L648,0 M274,531 Q269,504 260.5,466.5 Q252,429 242.5,386.5 Q233,344 222.5,298.5 Q212,253 202,210 L292,210 L292,531"/> 
            <glyph glyph-name="Ç" unicode="&#xC7;" horiz-adv-x="454" d=" M178,328 Q178,269 185,225.5 Q192,182 209,153.5 Q226,125 254,110.5 Q282,96 325,96 Q361,96 391,105.5 Q421,115 435,121 Q440,95 444.5,68.5 Q449,42 454,16 Q448,14 435,9 Q422,4 402.5,-1.5 Q383,-7 357.5,-11 Q332,-15 301,-15 L292,-15 Q288,-26 291,-35 Q292,-38 305,-43 Q317,-49 329.5,-56.5 Q342,-64 352.5,-76 Q363,-88 369.5,-104 Q376,-120 376,-142 Q376,-190 343,-215 Q310,-240 259,-240 Q241,-240 226,-235.5 Q211,-231 199,-225 Q187,-219 179,-213.5 Q171,-208 168,-206 L195,-154 Q200,-156 213.5,-165 Q227,-174 244,-174 Q263,-174 274.5,-165 Q286,-156 286,-138 Q286,-125 273.5,-117 Q261,-109 247,-102.5 Q233,-96 222.5,-90 Q212,-84 215,-73 L234,-9 Q33,30 33,328 Q33,502 100,586.5 Q167,671 301,671 Q332,671 357.5,667 Q383,663 402.5,657.5 Q422,652 435,647 Q448,642 454,640 Q449,614 444.5,587.5 Q440,561 435,535 Q421,541 391,550.5 Q361,560 325,560 Q282,560 254,545.5 Q226,531 209,502.5 Q192,474 185,430 Q178,386 178,328"/> 
            <glyph glyph-name="È" unicode="&#xC8;" horiz-adv-x="418" d=" M62,0 L62,658 L418,658 L418,545 L202,545 L202,393 L366,393 L366,287 L202,287 L202,113 L418,113 L418,0 M193,938 L332,771 L274,717 L118,865"/> 
            <glyph glyph-name="É" unicode="&#xC9;" horiz-adv-x="418" d=" M62,0 L62,658 L418,658 L418,545 L202,545 L202,393 L366,393 L366,287 L202,287 L202,113 L418,113 L418,0 M374,865 Q335,827 295.5,791 Q256,755 217,717 L159,771 L298,938"/> 
            <glyph glyph-name="Ê" unicode="&#xCA;" horiz-adv-x="418" d=" M62,0 L62,658 L418,658 L418,545 L202,545 L202,393 L366,393 L366,287 L202,287 L202,113 L418,113 L418,0 M380,816 L331,745 L225,822 L118,745 L70,815 L189,928 L254,928"/> 
            <glyph glyph-name="Ë" unicode="&#xCB;" horiz-adv-x="418" d=" M62,0 L62,658 L418,658 L418,545 L202,545 L202,393 L366,393 L366,287 L202,287 L202,113 L418,113 L418,0 M388,816 Q388,782 368.5,761 Q349,740 320,740 Q291,740 272,761 Q253,782 253,816 Q253,850 272,871 Q291,892 320,892 Q349,892 368.5,871 Q388,850 388,816 M196,816 Q196,782 177.5,761 Q159,740 130,740 Q101,740 81.5,761 Q62,782 62,816 Q62,850 81.5,871 Q101,892 130,892 Q159,892 177.5,871 Q196,850 196,816"/> 
            <glyph glyph-name="Ì" unicode="&#xCC;" horiz-adv-x="240" d=" M201,0 L62,0 L62,658 L201,658 M65637,938 L65776,771 L65718,717 L65562,865"/> 
            <glyph glyph-name="Í" unicode="&#xCD;" horiz-adv-x="241" d=" M201,0 L62,0 L62,658 L201,658 M65777,865 Q65738,827 65698.5,791 Q65659,755 65620,717 L65562,771 L65701,938"/> 
            <glyph glyph-name="Î" unicode="&#xCE;" horiz-adv-x="288" d=" M201,0 L62,0 L62,658 L201,658 M65824,816 L65775,745 L65669,822 L65562,745 L65514,815 L65633,928 L65698,928"/> 
            <glyph glyph-name="Ï" unicode="&#xCF;" horiz-adv-x="296" d=" M201,0 L62,0 L62,658 L201,658 M65832,816 Q65832,782 65812.5,761 Q65793,740 65764,740 Q65735,740 65716,761 Q65697,782 65697,816 Q65697,850 65716,871 Q65735,892 65764,892 Q65793,892 65812.5,871 Q65832,850 65832,816 M65640,816 Q65640,782 65621.5,761 Q65603,740 65574,740 Q65545,740 65525.5,761 Q65506,782 65506,816 Q65506,850 65525.5,871 Q65545,892 65574,892 Q65603,892 65621.5,871 Q65640,850 65640,816"/> 
            <glyph glyph-name="Ð" unicode="&#xD0;" horiz-adv-x="523" d=" M62,270 L0,270 L0,378 L62,378 L62,658 Q86,658 131.5,661 Q177,664 236,664 Q305,664 358.5,649.5 Q412,635 448.5,597.5 Q485,560 504,495 Q523,430 523,328 Q523,228 504,163.5 Q485,99 448.5,61 Q412,23 358.5,8 Q305,-7 236,-7 Q178,-7 132,-3.5 Q86,0 62,0 M247,270 L201,270 L201,103 Q212,102 224,102 Q236,102 249,102 Q318,102 349,158.5 Q380,215 380,328 Q380,446 349,500.5 Q318,555 248,555 Q237,555 225,554.5 Q213,554 201,553 L201,378 L247,378"/> 
            <glyph glyph-name="Ñ" unicode="&#xD1;" horiz-adv-x="516" d=" M516,0 L392,0 L182,415 L181,415 Q181,405 182.5,384.5 Q184,364 184,341 L184,0 L62,0 L62,658 L187,658 Q240,555 291.5,451.5 Q343,348 395,245 L397,245 Q397,255 395.5,276 Q394,297 394,318 L394,658 L516,658 M473,842 Q465,831 454.5,815.5 Q444,800 429.5,785 Q415,770 396.5,759.5 Q378,749 353,749 Q332,749 315.5,755 Q299,761 284,768.5 Q269,776 254.5,782.5 Q240,789 224,789 Q212,789 200.5,785 Q189,781 180,775 Q171,769 164,763 Q157,757 154,753 L104,798 Q113,808 124,824 Q135,840 149.5,854 Q164,868 183,878.5 Q202,889 227,889 Q248,889 265,882.5 Q282,876 297,868 Q312,860 326,853.5 Q340,847 356,847 Q368,847 379,851.5 Q390,856 399,862 Q408,868 414,873.5 Q420,879 422,882"/> 
            <glyph glyph-name="Ò" unicode="&#xD2;" horiz-adv-x="536" d=" M536,329 Q536,154 470.5,70.5 Q405,-13 284,-13 Q163,-13 98,70.5 Q33,154 33,329 Q33,504 98,587 Q163,670 284,670 Q405,670 470.5,587 Q536,504 536,329 M394,329 Q394,439 368,499 Q342,559 284,559 Q227,559 201.5,499 Q176,439 176,329 Q176,219 201,158.5 Q226,98 284,98 Q343,98 368.5,158.5 Q394,219 394,329 M210,938 L349,771 L291,717 L135,865"/> 
            <glyph glyph-name="Ó" unicode="&#xD3;" horiz-adv-x="536" d=" M536,329 Q536,154 470.5,70.5 Q405,-13 284,-13 Q163,-13 98,70.5 Q33,154 33,329 Q33,504 98,587 Q163,670 284,670 Q405,670 470.5,587 Q536,504 536,329 M394,329 Q394,439 368,499 Q342,559 284,559 Q227,559 201.5,499 Q176,439 176,329 Q176,219 201,158.5 Q226,98 284,98 Q343,98 368.5,158.5 Q394,219 394,329 M433,865 Q394,827 354.5,791 Q315,755 276,717 L218,771 L357,938"/> 
            <glyph glyph-name="Ô" unicode="&#xD4;" horiz-adv-x="536" d=" M536,329 Q536,154 470.5,70.5 Q405,-13 284,-13 Q163,-13 98,70.5 Q33,154 33,329 Q33,504 98,587 Q163,670 284,670 Q405,670 470.5,587 Q536,504 536,329 M394,329 Q394,439 368,499 Q342,559 284,559 Q227,559 201.5,499 Q176,439 176,329 Q176,219 201,158.5 Q226,98 284,98 Q343,98 368.5,158.5 Q394,219 394,329 M440,816 L391,745 L285,822 L178,745 L130,815 L249,928 L314,928"/> 
            <glyph glyph-name="Õ" unicode="&#xD5;" horiz-adv-x="536" d=" M536,329 Q536,154 470.5,70.5 Q405,-13 284,-13 Q163,-13 98,70.5 Q33,154 33,329 Q33,504 98,587 Q163,670 284,670 Q405,670 470.5,587 Q536,504 536,329 M394,329 Q394,439 368,499 Q342,559 284,559 Q227,559 201.5,499 Q176,439 176,329 Q176,219 201,158.5 Q226,98 284,98 Q343,98 368.5,158.5 Q394,219 394,329 M469,842 Q461,831 450.5,815.5 Q440,800 425.5,785 Q411,770 392.5,759.5 Q374,749 349,749 Q328,749 311.5,755 Q295,761 280,768.5 Q265,776 250.5,782.5 Q236,789 220,789 Q208,789 196.5,785 Q185,781 176,775 Q167,769 160,763 Q153,757 150,753 L100,798 Q109,808 120,824 Q131,840 145.5,854 Q160,868 179,878.5 Q198,889 223,889 Q244,889 261,882.5 Q278,876 293,868 Q308,860 322,853.5 Q336,847 352,847 Q364,847 375,851.5 Q386,856 395,862 Q404,868 410,873.5 Q416,879 418,882"/> 
            <glyph glyph-name="Ö" unicode="&#xD6;" horiz-adv-x="536" d=" M536,329 Q536,154 470.5,70.5 Q405,-13 284,-13 Q163,-13 98,70.5 Q33,154 33,329 Q33,504 98,587 Q163,670 284,670 Q405,670 470.5,587 Q536,504 536,329 M394,329 Q394,439 368,499 Q342,559 284,559 Q227,559 201.5,499 Q176,439 176,329 Q176,219 201,158.5 Q226,98 284,98 Q343,98 368.5,158.5 Q394,219 394,329 M448,816 Q448,782 428.5,761 Q409,740 380,740 Q351,740 332,761 Q313,782 313,816 Q313,850 332,871 Q351,892 380,892 Q409,892 428.5,871 Q448,850 448,816 M256,816 Q256,782 237.5,761 Q219,740 190,740 Q161,740 141.5,761 Q122,782 122,816 Q122,850 141.5,871 Q161,892 190,892 Q219,892 237.5,871 Q256,850 256,816"/> 
            <glyph glyph-name="Ø" unicode="&#xD8;" horiz-adv-x="559" d=" M499,538 Q517,498 526.5,446.5 Q536,395 536,329 Q536,154 470.5,70.5 Q405,-13 284,-13 Q198,-13 142,27 L100,-33 L11,29 L71,115 Q33,197 33,329 Q33,504 98,587 Q163,670 284,670 Q372,670 429,628 L470,686 L559,624 M176,329 Q176,312 176,297 Q176,282 178,268 L355,521 Q328,559 284,559 Q227,559 201.5,499 Q176,439 176,329 M394,329 Q394,344 393.5,358 Q393,372 392,385 L215,133 Q241,98 284,98 Q343,98 368.5,158.5 Q394,219 394,329"/> 
            <glyph glyph-name="Ù" unicode="&#xD9;" horiz-adv-x="497" d=" M54,658 L193,658 L193,309 Q193,254 195.5,214.5 Q198,175 206.5,149 Q215,123 231.5,110.5 Q248,98 277,98 Q306,98 322.5,110.5 Q339,123 347.5,149 Q356,175 358,214.5 Q360,254 360,309 L360,658 L497,658 L497,309 Q497,222 485.5,160.5 Q474,99 448,60.5 Q422,22 380,4.5 Q338,-13 277,-13 Q217,-13 174.5,4.5 Q132,22 105,60.5 Q78,99 66,160.5 Q54,222 54,309 M200,938 L339,771 L281,717 L125,865"/> 
            <glyph glyph-name="Ú" unicode="&#xDA;" horiz-adv-x="497" d=" M54,658 L193,658 L193,309 Q193,254 195.5,214.5 Q198,175 206.5,149 Q215,123 231.5,110.5 Q248,98 277,98 Q306,98 322.5,110.5 Q339,123 347.5,149 Q356,175 358,214.5 Q360,254 360,309 L360,658 L497,658 L497,309 Q497,222 485.5,160.5 Q474,99 448,60.5 Q422,22 380,4.5 Q338,-13 277,-13 Q217,-13 174.5,4.5 Q132,22 105,60.5 Q78,99 66,160.5 Q54,222 54,309 M436,865 Q397,827 357.5,791 Q318,755 279,717 L221,771 L360,938"/> 
            <glyph glyph-name="Û" unicode="&#xDB;" horiz-adv-x="497" d=" M54,658 L193,658 L193,309 Q193,254 195.5,214.5 Q198,175 206.5,149 Q215,123 231.5,110.5 Q248,98 277,98 Q306,98 322.5,110.5 Q339,123 347.5,149 Q356,175 358,214.5 Q360,254 360,309 L360,658 L497,658 L497,309 Q497,222 485.5,160.5 Q474,99 448,60.5 Q422,22 380,4.5 Q338,-13 277,-13 Q217,-13 174.5,4.5 Q132,22 105,60.5 Q78,99 66,160.5 Q54,222 54,309 M432,816 L383,745 L277,822 L170,745 L122,815 L241,928 L306,928"/> 
            <glyph glyph-name="Ü" unicode="&#xDC;" horiz-adv-x="497" d=" M54,658 L193,658 L193,309 Q193,254 195.5,214.5 Q198,175 206.5,149 Q215,123 231.5,110.5 Q248,98 277,98 Q306,98 322.5,110.5 Q339,123 347.5,149 Q356,175 358,214.5 Q360,254 360,309 L360,658 L497,658 L497,309 Q497,222 485.5,160.5 Q474,99 448,60.5 Q422,22 380,4.5 Q338,-13 277,-13 Q217,-13 174.5,4.5 Q132,22 105,60.5 Q78,99 66,160.5 Q54,222 54,309 M440,816 Q440,782 420.5,761 Q401,740 372,740 Q343,740 324,761 Q305,782 305,816 Q305,850 324,871 Q343,892 372,892 Q401,892 420.5,871 Q440,850 440,816 M248,816 Q248,782 229.5,761 Q211,740 182,740 Q153,740 133.5,761 Q114,782 114,816 Q114,850 133.5,871 Q153,892 182,892 Q211,892 229.5,871 Q248,850 248,816"/> 
            <glyph glyph-name="Ý" unicode="&#xDD;" horiz-adv-x="530" d=" M334,0 L195,0 L195,217 L177,257 Q132,357 87.5,457 Q43,557 -2,658 L147,658 Q164,612 182,564.5 Q200,517 215.5,474.5 Q231,432 244,397 Q257,362 264,342 Q271,362 284,397 Q297,432 312.5,474.5 Q328,517 346,564.5 Q364,612 381,658 L530,658 Q485,557 440.5,457 Q396,357 351,257 L334,217 M371,865 Q332,827 292.5,791 Q253,755 214,717 L156,771 L295,938"/> 
            <glyph glyph-name="Þ" unicode="&#xDE;" horiz-adv-x="471" d=" M198,559 Q207,560 216,560 Q225,560 234,560 Q362,560 416.5,502.5 Q471,445 471,335 Q471,272 453.5,229 Q436,186 405,159.5 Q374,133 333,121.5 Q292,110 244,110 Q219,110 198,113 L198,0 L62,0 L62,658 L198,658 M239,453 Q230,453 219.5,453 Q209,453 198,452 L198,215 Q206,214 215,214 Q224,214 234,214 Q277,214 304,240 Q331,266 331,334 Q331,395 307,424 Q283,453 239,453"/> 
            <glyph glyph-name="ß" unicode="&#xDF;" horiz-adv-x="512" d=" M184,0 L49,0 L49,535 Q49,593 64,634 Q79,675 106,701 Q133,727 170.5,738.5 Q208,750 254,750 Q343,750 390,710 Q437,670 437,580 Q437,546 427.5,521.5 Q418,497 405,478 Q392,459 379,443 Q366,427 359,409 Q374,391 399.5,371.5 Q425,352 450,326.5 Q475,301 493.5,267 Q512,233 512,185 Q512,91 465.5,39.5 Q419,-12 335,-12 Q289,-12 261,-0.5 Q233,11 219,17 L237,105 Q244,103 261.5,95.5 Q279,88 305,88 Q334,88 350.5,104.5 Q367,121 367,160 Q367,181 363,202.5 Q359,224 348,242.5 Q337,261 318,274.5 Q299,288 270,292 Q254,316 241.5,343.5 Q229,371 229,408 Q229,426 241,440 Q253,454 267.5,470.5 Q282,487 294,509 Q306,531 306,566 Q306,604 292.5,625 Q279,646 250,646 Q215,646 199.5,620.5 Q184,595 184,533"/> 
            <glyph glyph-name="à" unicode="&#xE0;" horiz-adv-x="419" d=" M295,0 Q293,14 291.5,28 Q290,42 288,56 Q283,51 274,40 Q265,29 250,17.5 Q235,6 212.5,-3 Q190,-12 160,-12 Q132,-12 107,-3 Q82,6 63.5,25 Q45,44 34,73 Q23,102 23,143 Q23,238 83,279 Q143,320 262,320 L285,318 L285,330 Q285,361 278.5,379.5 Q272,398 260.5,408 Q249,418 233.5,421 Q218,424 199,424 Q165,424 129.5,416.5 Q94,409 74,402 L59,494 Q71,498 88.5,503.5 Q106,509 127.5,513.5 Q149,518 173,521.5 Q197,525 222,525 Q325,525 372,476.5 Q419,428 419,326 L419,0 M211,86 Q227,86 239,90.5 Q251,95 260,102 Q269,109 275,116.5 Q281,124 285,129 L285,242 Q278,242 271.5,242 Q265,242 258,243 Q201,243 177,225 Q153,207 153,159 Q153,124 167,105 Q181,86 211,86 M169,794 L308,627 L250,573 L94,721"/> 
            <glyph glyph-name="á" unicode="&#xE1;" horiz-adv-x="419" d=" M295,0 Q293,14 291.5,28 Q290,42 288,56 Q283,51 274,40 Q265,29 250,17.5 Q235,6 212.5,-3 Q190,-12 160,-12 Q132,-12 107,-3 Q82,6 63.5,25 Q45,44 34,73 Q23,102 23,143 Q23,238 83,279 Q143,320 262,320 L285,318 L285,330 Q285,361 278.5,379.5 Q272,398 260.5,408 Q249,418 233.5,421 Q218,424 199,424 Q165,424 129.5,416.5 Q94,409 74,402 L59,494 Q71,498 88.5,503.5 Q106,509 127.5,513.5 Q149,518 173,521.5 Q197,525 222,525 Q325,525 372,476.5 Q419,428 419,326 L419,0 M211,86 Q227,86 239,90.5 Q251,95 260,102 Q269,109 275,116.5 Q281,124 285,129 L285,242 Q278,242 271.5,242 Q265,242 258,243 Q201,243 177,225 Q153,207 153,159 Q153,124 167,105 Q181,86 211,86 M369,721 Q330,683 290.5,647 Q251,611 212,573 L154,627 L293,794"/> 
            <glyph glyph-name="â" unicode="&#xE2;" horiz-adv-x="419" d=" M295,0 Q293,14 291.5,28 Q290,42 288,56 Q283,51 274,40 Q265,29 250,17.5 Q235,6 212.5,-3 Q190,-12 160,-12 Q132,-12 107,-3 Q82,6 63.5,25 Q45,44 34,73 Q23,102 23,143 Q23,238 83,279 Q143,320 262,320 L285,318 L285,330 Q285,361 278.5,379.5 Q272,398 260.5,408 Q249,418 233.5,421 Q218,424 199,424 Q165,424 129.5,416.5 Q94,409 74,402 L59,494 Q71,498 88.5,503.5 Q106,509 127.5,513.5 Q149,518 173,521.5 Q197,525 222,525 Q325,525 372,476.5 Q419,428 419,326 L419,0 M211,86 Q227,86 239,90.5 Q251,95 260,102 Q269,109 275,116.5 Q281,124 285,129 L285,242 Q278,242 271.5,242 Q265,242 258,243 Q201,243 177,225 Q153,207 153,159 Q153,124 167,105 Q181,86 211,86 M388,672 L339,601 L233,678 L126,601 L78,671 L197,784 L262,784"/> 
            <glyph glyph-name="ã" unicode="&#xE3;" horiz-adv-x="419" d=" M295,0 Q293,14 291.5,28 Q290,42 288,56 Q283,51 274,40 Q265,29 250,17.5 Q235,6 212.5,-3 Q190,-12 160,-12 Q132,-12 107,-3 Q82,6 63.5,25 Q45,44 34,73 Q23,102 23,143 Q23,238 83,279 Q143,320 262,320 L285,318 L285,330 Q285,361 278.5,379.5 Q272,398 260.5,408 Q249,418 233.5,421 Q218,424 199,424 Q165,424 129.5,416.5 Q94,409 74,402 L59,494 Q71,498 88.5,503.5 Q106,509 127.5,513.5 Q149,518 173,521.5 Q197,525 222,525 Q325,525 372,476.5 Q419,428 419,326 L419,0 M211,86 Q227,86 239,90.5 Q251,95 260,102 Q269,109 275,116.5 Q281,124 285,129 L285,242 Q278,242 271.5,242 Q265,242 258,243 Q201,243 177,225 Q153,207 153,159 Q153,124 167,105 Q181,86 211,86 M418,698 Q410,687 399.5,671.5 Q389,656 374.5,641 Q360,626 341.5,615.5 Q323,605 298,605 Q277,605 260.5,611 Q244,617 229,624.5 Q214,632 199.5,638.5 Q185,645 169,645 Q157,645 145.5,641 Q134,637 125,631 Q116,625 109,619 Q102,613 99,609 L49,654 Q58,664 69,680 Q80,696 94.5,710 Q109,724 128,734.5 Q147,745 172,745 Q193,745 210,738.5 Q227,732 242,724 Q257,716 271,709.5 Q285,703 301,703 Q313,703 324,707.5 Q335,712 344,718 Q353,724 359,729.5 Q365,735 367,738"/> 
            <glyph glyph-name="ä" unicode="&#xE4;" horiz-adv-x="419" d=" M295,0 Q293,14 291.5,28 Q290,42 288,56 Q283,51 274,40 Q265,29 250,17.5 Q235,6 212.5,-3 Q190,-12 160,-12 Q132,-12 107,-3 Q82,6 63.5,25 Q45,44 34,73 Q23,102 23,143 Q23,238 83,279 Q143,320 262,320 L285,318 L285,330 Q285,361 278.5,379.5 Q272,398 260.5,408 Q249,418 233.5,421 Q218,424 199,424 Q165,424 129.5,416.5 Q94,409 74,402 L59,494 Q71,498 88.5,503.5 Q106,509 127.5,513.5 Q149,518 173,521.5 Q197,525 222,525 Q325,525 372,476.5 Q419,428 419,326 L419,0 M211,86 Q227,86 239,90.5 Q251,95 260,102 Q269,109 275,116.5 Q281,124 285,129 L285,242 Q278,242 271.5,242 Q265,242 258,243 Q201,243 177,225 Q153,207 153,159 Q153,124 167,105 Q181,86 211,86 M396,672 Q396,638 376.5,617 Q357,596 328,596 Q299,596 280,617 Q261,638 261,672 Q261,706 280,727 Q299,748 328,748 Q357,748 376.5,727 Q396,706 396,672 M204,672 Q204,638 185.5,617 Q167,596 138,596 Q109,596 89.5,617 Q70,638 70,672 Q70,706 89.5,727 Q109,748 138,748 Q167,748 185.5,727 Q204,706 204,672"/> 
            <glyph glyph-name="å" unicode="&#xE5;" horiz-adv-x="419" d=" M295,0 Q293,14 291.5,28 Q290,42 288,56 Q283,51 274,40 Q265,29 250,17.5 Q235,6 212.5,-3 Q190,-12 160,-12 Q132,-12 107,-3 Q82,6 63.5,25 Q45,44 34,73 Q23,102 23,143 Q23,238 83,279 Q143,320 262,320 L285,318 L285,330 Q285,361 278.5,379.5 Q272,398 260.5,408 Q249,418 233.5,421 Q218,424 199,424 Q165,424 129.5,416.5 Q94,409 74,402 L59,494 Q71,498 88.5,503.5 Q106,509 127.5,513.5 Q149,518 173,521.5 Q197,525 222,525 Q325,525 372,476.5 Q419,428 419,326 L419,0 M211,86 Q227,86 239,90.5 Q251,95 260,102 Q269,109 275,116.5 Q281,124 285,129 L285,242 Q278,242 271.5,242 Q265,242 258,243 Q201,243 177,225 Q153,207 153,159 Q153,124 167,105 Q181,86 211,86 M339,710 Q339,660 309,627.5 Q279,595 233,595 Q186,595 156.5,627.5 Q127,660 127,710 Q127,759 157,791 Q187,823 233,823 Q255,823 274.5,814.5 Q294,806 308,791 Q322,776 330.5,755 Q339,734 339,710 M277,710 Q277,733 265,747.5 Q253,762 233,762 Q213,762 200.5,747.5 Q188,733 188,710 Q188,687 200.5,672 Q213,657 233,657 Q253,657 265,672 Q277,687 277,710"/> 
            <glyph glyph-name="æ" unicode="&#xE6;" horiz-adv-x="686" d=" M671,37 Q665,33 651,25 Q637,17 614.5,8.5 Q592,0 562,-6 Q532,-12 495,-12 Q450,-12 413,8 Q376,28 351,73 Q317,28 267,8 Q217,-12 160,-12 Q132,-12 107,-3 Q82,6 63.5,25 Q45,44 34,73 Q23,102 23,143 Q23,238 83,279 Q143,320 262,320 L285,318 L285,330 Q285,361 278.5,379.5 Q272,398 260.5,408 Q249,418 233.5,421 Q218,424 199,424 Q165,424 129.5,416.5 Q94,409 74,402 L59,494 Q71,498 88.5,503.5 Q106,509 127.5,513.5 Q149,518 173,521.5 Q197,525 222,525 Q327,525 369,458 Q393,492 424.5,508.5 Q456,525 492,525 Q535,525 570.5,511.5 Q606,498 631.5,468.5 Q657,439 671.5,394 Q686,349 686,286 Q686,259 683.5,239.5 Q681,220 680,216 L419,216 Q420,149 449,119.5 Q478,90 521,90 Q561,90 593.5,103.5 Q626,117 644,125 M211,86 Q227,86 239,90.5 Q251,95 260,102 Q269,109 275,116.5 Q281,124 285,129 L285,242 Q278,242 271.5,242 Q265,242 258,243 Q201,243 177,225 Q153,207 153,159 Q153,124 167,105 Q181,86 211,86 M491,429 Q478,429 465,422.5 Q452,416 442,401 Q432,386 425.5,361 Q419,336 419,300 L556,300 Q556,338 551,363 Q546,388 537.5,402.5 Q529,417 517,423 Q505,429 491,429"/> 
            <glyph glyph-name="ç" unicode="&#xE7;" horiz-adv-x="383" d=" M383,34 Q376,31 363.5,23.5 Q351,16 333,8.5 Q315,1 291.5,-5.5 Q268,-12 240,-12 Q235,-23 238,-35 Q239,-38 252,-43 Q264,-49 276.5,-56.5 Q289,-64 299.5,-76 Q310,-88 316.5,-104 Q323,-120 323,-142 Q323,-190 290,-215 Q257,-240 206,-240 Q188,-240 173,-235.5 Q158,-231 146,-225 Q134,-219 126,-213.5 Q118,-208 115,-206 L142,-154 Q147,-156 160.5,-165 Q174,-174 191,-174 Q210,-174 221.5,-165 Q233,-156 233,-138 Q233,-125 220.5,-117 Q208,-109 194,-102.5 Q180,-96 169.5,-90 Q159,-84 162,-73 L182,-7 Q107,8 67.5,71 Q28,134 28,249 Q28,389 83.5,457 Q139,525 245,525 Q287,525 319,517 Q351,509 365,504 L349,405 Q339,409 315,415 Q291,421 264,421 Q214,421 190.5,381.5 Q167,342 167,254 Q167,165 191.5,129 Q216,93 260,93 Q291,93 316,104.5 Q341,116 352,120"/> 
            <glyph glyph-name="è" unicode="&#xE8;" horiz-adv-x="429" d=" M414,37 Q408,33 394,25 Q380,17 357.5,8.5 Q335,0 305,-6 Q275,-12 238,-12 Q194,-12 156,2.5 Q118,17 89.5,48 Q61,79 44.5,127 Q28,175 28,243 Q28,315 44.5,368 Q61,421 89,456 Q117,491 154.5,508 Q192,525 235,525 Q278,525 313.5,511.5 Q349,498 374.5,468.5 Q400,439 414.5,394 Q429,349 429,286 Q429,259 426.5,239.5 Q424,220 423,216 L162,216 Q163,149 192,119.5 Q221,90 264,90 Q304,90 336.5,103.5 Q369,117 387,125 M234,429 Q221,429 208,422.5 Q195,416 185,401 Q175,386 168.5,361 Q162,336 162,300 L299,300 Q299,338 294,363 Q289,388 280.5,402.5 Q272,417 260,423 Q248,429 234,429 M196,794 L335,627 L277,573 L121,721"/> 
            <glyph glyph-name="é" unicode="&#xE9;" horiz-adv-x="429" d=" M414,37 Q408,33 394,25 Q380,17 357.5,8.5 Q335,0 305,-6 Q275,-12 238,-12 Q194,-12 156,2.5 Q118,17 89.5,48 Q61,79 44.5,127 Q28,175 28,243 Q28,315 44.5,368 Q61,421 89,456 Q117,491 154.5,508 Q192,525 235,525 Q278,525 313.5,511.5 Q349,498 374.5,468.5 Q400,439 414.5,394 Q429,349 429,286 Q429,259 426.5,239.5 Q424,220 423,216 L162,216 Q163,149 192,119.5 Q221,90 264,90 Q304,90 336.5,103.5 Q369,117 387,125 M234,429 Q221,429 208,422.5 Q195,416 185,401 Q175,386 168.5,361 Q162,336 162,300 L299,300 Q299,338 294,363 Q289,388 280.5,402.5 Q272,417 260,423 Q248,429 234,429 M392,721 Q353,683 313.5,647 Q274,611 235,573 L177,627 L316,794"/> 
            <glyph glyph-name="ê" unicode="&#xEA;" horiz-adv-x="429" d=" M414,37 Q408,33 394,25 Q380,17 357.5,8.5 Q335,0 305,-6 Q275,-12 238,-12 Q194,-12 156,2.5 Q118,17 89.5,48 Q61,79 44.5,127 Q28,175 28,243 Q28,315 44.5,368 Q61,421 89,456 Q117,491 154.5,508 Q192,525 235,525 Q278,525 313.5,511.5 Q349,498 374.5,468.5 Q400,439 414.5,394 Q429,349 429,286 Q429,259 426.5,239.5 Q424,220 423,216 L162,216 Q163,149 192,119.5 Q221,90 264,90 Q304,90 336.5,103.5 Q369,117 387,125 M234,429 Q221,429 208,422.5 Q195,416 185,401 Q175,386 168.5,361 Q162,336 162,300 L299,300 Q299,338 294,363 Q289,388 280.5,402.5 Q272,417 260,423 Q248,429 234,429 M383,672 L334,601 L228,678 L121,601 L73,671 L192,784 L257,784"/> 
            <glyph glyph-name="ë" unicode="&#xEB;" horiz-adv-x="429" d=" M414,37 Q408,33 394,25 Q380,17 357.5,8.5 Q335,0 305,-6 Q275,-12 238,-12 Q194,-12 156,2.5 Q118,17 89.5,48 Q61,79 44.5,127 Q28,175 28,243 Q28,315 44.5,368 Q61,421 89,456 Q117,491 154.5,508 Q192,525 235,525 Q278,525 313.5,511.5 Q349,498 374.5,468.5 Q400,439 414.5,394 Q429,349 429,286 Q429,259 426.5,239.5 Q424,220 423,216 L162,216 Q163,149 192,119.5 Q221,90 264,90 Q304,90 336.5,103.5 Q369,117 387,125 M234,429 Q221,429 208,422.5 Q195,416 185,401 Q175,386 168.5,361 Q162,336 162,300 L299,300 Q299,338 294,363 Q289,388 280.5,402.5 Q272,417 260,423 Q248,429 234,429 M391,672 Q391,638 371.5,617 Q352,596 323,596 Q294,596 275,617 Q256,638 256,672 Q256,706 275,727 Q294,748 323,748 Q352,748 371.5,727 Q391,706 391,672 M199,672 Q199,638 180.5,617 Q162,596 133,596 Q104,596 84.5,617 Q65,638 65,672 Q65,706 84.5,727 Q104,748 133,748 Q162,748 180.5,727 Q199,706 199,672"/> 
            <glyph glyph-name="ì" unicode="&#xEC;" horiz-adv-x="188" d=" M187,0 L52,0 L52,514 L187,514 M305,794 L444,627 L386,573 L230,721"/> 
            <glyph glyph-name="í" unicode="&#xED;" horiz-adv-x="271" d=" M187,0 L52,0 L52,514 L187,514 M527,721 Q488,683 448.5,647 Q409,611 370,573 L312,627 L451,794"/> 
            <glyph glyph-name="î" unicode="&#xEE;" horiz-adv-x="276" d=" M187,0 L52,0 L52,514 L187,514 M532,672 L483,601 L377,678 L270,601 L222,671 L341,784 L406,784"/> 
            <glyph glyph-name="ï" unicode="&#xEF;" horiz-adv-x="284" d=" M187,0 L52,0 L52,514 L187,514 M540,672 Q540,638 520.5,617 Q501,596 472,596 Q443,596 424,617 Q405,638 405,672 Q405,706 424,727 Q443,748 472,748 Q501,748 520.5,727 Q540,706 540,672 M348,672 Q348,638 329.5,617 Q311,596 282,596 Q253,596 233.5,617 Q214,638 214,672 Q214,706 233.5,727 Q253,748 282,748 Q311,748 329.5,727 Q348,706 348,672"/> 
            <glyph glyph-name="ð" unicode="&#xF0;" horiz-adv-x="456" d=" M303,755 L263,692 Q309,662 345,627 Q381,592 405.5,544 Q430,496 443,432 Q456,368 456,281 Q456,194 441,137 Q426,80 399,47 Q372,14 333,0.5 Q294,-13 246,-13 Q197,-13 157,2.5 Q117,18 88.5,50.5 Q60,83 44.5,132 Q29,181 29,249 Q29,366 78,422.5 Q127,479 210,479 Q232,479 250.5,473.5 Q269,468 283,460 Q297,452 306.5,443 Q316,434 321,427 Q316,459 307,483.5 Q298,508 284,528 Q270,548 250,564.5 Q230,581 204,598 L161,531 L93,578 L132,639 L58,680 L110,775 L191,733 L235,802 M241,386 Q200,386 183.5,351 Q167,316 167,241 Q167,166 184,128 Q201,90 243,90 Q284,90 301,127 Q318,164 318,250 Q318,280 317,305 Q316,330 308.5,348 Q301,366 285.5,376 Q270,386 241,386"/> 
            <glyph glyph-name="ñ" unicode="&#xF1;" horiz-adv-x="461" d=" M52,514 L171,514 L177,448 L179,448 Q184,453 196.5,465.5 Q209,478 228,491.5 Q247,505 272.5,515 Q298,525 330,525 Q401,525 431,481 Q461,437 461,346 L461,0 L326,0 L326,313 Q326,368 315,388 Q304,408 273,408 Q258,408 244,401 Q230,394 218.5,385 Q207,376 198.5,366.5 Q190,357 186,352 L186,0 L52,0 M438,698 Q430,687 419.5,671.5 Q409,656 394.5,641 Q380,626 361.5,615.5 Q343,605 318,605 Q297,605 280.5,611 Q264,617 249,624.5 Q234,632 219.5,638.5 Q205,645 189,645 Q177,645 165.5,641 Q154,637 145,631 Q136,625 129,619 Q122,613 119,609 L69,654 Q78,664 89,680 Q100,696 114.5,710 Q129,724 148,734.5 Q167,745 192,745 Q213,745 230,738.5 Q247,732 262,724 Q277,716 291,709.5 Q305,703 321,703 Q333,703 344,707.5 Q355,712 364,718 Q373,724 379,729.5 Q385,735 387,738"/> 
            <glyph glyph-name="ò" unicode="&#xF2;" horiz-adv-x="469" d=" M469,257 Q469,184 453,133 Q437,82 408,49.5 Q379,17 338.5,2.5 Q298,-12 248,-12 Q198,-12 157,2.5 Q116,17 87.5,49.5 Q59,82 43.5,133 Q28,184 28,257 Q28,329 43.5,380 Q59,431 87.5,463.5 Q116,496 157,510.5 Q198,525 248,525 Q298,525 338.5,510.5 Q379,496 408,463.5 Q437,431 453,380 Q469,329 469,257 M329,257 Q329,347 309.5,386.5 Q290,426 248,426 Q206,426 186.5,386.5 Q167,347 167,257 Q167,166 186.5,126.5 Q206,87 248,87 Q290,87 309.5,126.5 Q329,166 329,257 M181,794 L320,627 L262,573 L106,721"/> 
            <glyph glyph-name="ó" unicode="&#xF3;" horiz-adv-x="469" d=" M469,257 Q469,184 453,133 Q437,82 408,49.5 Q379,17 338.5,2.5 Q298,-12 248,-12 Q198,-12 157,2.5 Q116,17 87.5,49.5 Q59,82 43.5,133 Q28,184 28,257 Q28,329 43.5,380 Q59,431 87.5,463.5 Q116,496 157,510.5 Q198,525 248,525 Q298,525 338.5,510.5 Q379,496 408,463.5 Q437,431 453,380 Q469,329 469,257 M329,257 Q329,347 309.5,386.5 Q290,426 248,426 Q206,426 186.5,386.5 Q167,347 167,257 Q167,166 186.5,126.5 Q206,87 248,87 Q290,87 309.5,126.5 Q329,166 329,257 M390,721 Q351,683 311.5,647 Q272,611 233,573 L175,627 L314,794"/> 
            <glyph glyph-name="ô" unicode="&#xF4;" horiz-adv-x="469" d=" M469,257 Q469,184 453,133 Q437,82 408,49.5 Q379,17 338.5,2.5 Q298,-12 248,-12 Q198,-12 157,2.5 Q116,17 87.5,49.5 Q59,82 43.5,133 Q28,184 28,257 Q28,329 43.5,380 Q59,431 87.5,463.5 Q116,496 157,510.5 Q198,525 248,525 Q298,525 338.5,510.5 Q379,496 408,463.5 Q437,431 453,380 Q469,329 469,257 M329,257 Q329,347 309.5,386.5 Q290,426 248,426 Q206,426 186.5,386.5 Q167,347 167,257 Q167,166 186.5,126.5 Q206,87 248,87 Q290,87 309.5,126.5 Q329,166 329,257 M403,672 L354,601 L248,678 L141,601 L93,671 L212,784 L277,784"/> 
            <glyph glyph-name="õ" unicode="&#xF5;" horiz-adv-x="469" d=" M469,257 Q469,184 453,133 Q437,82 408,49.5 Q379,17 338.5,2.5 Q298,-12 248,-12 Q198,-12 157,2.5 Q116,17 87.5,49.5 Q59,82 43.5,133 Q28,184 28,257 Q28,329 43.5,380 Q59,431 87.5,463.5 Q116,496 157,510.5 Q198,525 248,525 Q298,525 338.5,510.5 Q379,496 408,463.5 Q437,431 453,380 Q469,329 469,257 M329,257 Q329,347 309.5,386.5 Q290,426 248,426 Q206,426 186.5,386.5 Q167,347 167,257 Q167,166 186.5,126.5 Q206,87 248,87 Q290,87 309.5,126.5 Q329,166 329,257 M433,698 Q425,687 414.5,671.5 Q404,656 389.5,641 Q375,626 356.5,615.5 Q338,605 313,605 Q292,605 275.5,611 Q259,617 244,624.5 Q229,632 214.5,638.5 Q200,645 184,645 Q172,645 160.5,641 Q149,637 140,631 Q131,625 124,619 Q117,613 114,609 L64,654 Q73,664 84,680 Q95,696 109.5,710 Q124,724 143,734.5 Q162,745 187,745 Q208,745 225,738.5 Q242,732 257,724 Q272,716 286,709.5 Q300,703 316,703 Q328,703 339,707.5 Q350,712 359,718 Q368,724 374,729.5 Q380,735 382,738"/> 
            <glyph glyph-name="ö" unicode="&#xF6;" horiz-adv-x="469" d=" M469,257 Q469,184 453,133 Q437,82 408,49.5 Q379,17 338.5,2.5 Q298,-12 248,-12 Q198,-12 157,2.5 Q116,17 87.5,49.5 Q59,82 43.5,133 Q28,184 28,257 Q28,329 43.5,380 Q59,431 87.5,463.5 Q116,496 157,510.5 Q198,525 248,525 Q298,525 338.5,510.5 Q379,496 408,463.5 Q437,431 453,380 Q469,329 469,257 M329,257 Q329,347 309.5,386.5 Q290,426 248,426 Q206,426 186.5,386.5 Q167,347 167,257 Q167,166 186.5,126.5 Q206,87 248,87 Q290,87 309.5,126.5 Q329,166 329,257 M411,672 Q411,638 391.5,617 Q372,596 343,596 Q314,596 295,617 Q276,638 276,672 Q276,706 295,727 Q314,748 343,748 Q372,748 391.5,727 Q411,706 411,672 M219,672 Q219,638 200.5,617 Q182,596 153,596 Q124,596 104.5,617 Q85,638 85,672 Q85,706 104.5,727 Q124,748 153,748 Q182,748 200.5,727 Q219,706 219,672"/> 
            <glyph glyph-name="÷" unicode="&#xF7;" horiz-adv-x="451" d=" M320,520 Q320,483 299,460.5 Q278,438 247,438 Q216,438 195,460.5 Q174,483 174,520 Q174,557 195,580 Q216,603 247,603 Q278,603 299,580 Q320,557 320,520 M321,115 Q321,77 300,54.5 Q279,32 248,32 Q217,32 195.5,54.5 Q174,77 174,115 Q174,152 195.5,174.5 Q217,197 248,197 Q279,197 300,174.5 Q321,152 321,115 M451,248 L44,248 L44,353 L451,353"/> 
            <glyph glyph-name="ø" unicode="&#xF8;" horiz-adv-x="474" d=" M469,257 Q469,184 453,133 Q437,82 408,49.5 Q379,17 338.5,2.5 Q298,-12 248,-12 Q187,-12 142,9 L110,-37 L22,25 L63,84 Q28,148 28,257 Q28,329 43.5,380 Q59,431 87.5,463.5 Q116,496 157,510.5 Q198,525 248,525 Q278,525 305.5,519.5 Q333,514 356,503 L386,546 L474,484 L434,426 Q451,395 460,353 Q469,311 469,257 M167,233 L291,411 Q274,426 248,426 Q206,426 186.5,386.5 Q167,347 167,257 M329,276 L206,101 Q221,87 248,87 Q290,87 309.5,126.5 Q329,166 329,257"/> 
            <glyph glyph-name="ù" unicode="&#xF9;" horiz-adv-x="457" d=" M457,0 L340,0 L332,69 L304,44 Q298,39 287.5,29.5 Q277,20 261,11 Q245,2 224.5,-5 Q204,-12 179,-12 Q108,-12 77.5,32 Q47,76 47,167 L47,514 L182,514 L182,234 Q182,197 183.5,172.5 Q185,148 191,133 Q197,118 208,112 Q219,106 237,106 Q251,106 264,112.5 Q277,119 288.5,128 Q300,137 308.5,147 Q317,157 322,163 L322,514 L457,514 M169,794 L308,627 L250,573 L94,721"/> 
            <glyph glyph-name="ú" unicode="&#xFA;" horiz-adv-x="457" d=" M457,0 L340,0 L332,69 L304,44 Q298,39 287.5,29.5 Q277,20 261,11 Q245,2 224.5,-5 Q204,-12 179,-12 Q108,-12 77.5,32 Q47,76 47,167 L47,514 L182,514 L182,234 Q182,197 183.5,172.5 Q185,148 191,133 Q197,118 208,112 Q219,106 237,106 Q251,106 264,112.5 Q277,119 288.5,128 Q300,137 308.5,147 Q317,157 322,163 L322,514 L457,514 M399,721 Q360,683 320.5,647 Q281,611 242,573 L184,627 L323,794"/> 
            <glyph glyph-name="û" unicode="&#xFB;" horiz-adv-x="457" d=" M457,0 L340,0 L332,69 L304,44 Q298,39 287.5,29.5 Q277,20 261,11 Q245,2 224.5,-5 Q204,-12 179,-12 Q108,-12 77.5,32 Q47,76 47,167 L47,514 L182,514 L182,234 Q182,197 183.5,172.5 Q185,148 191,133 Q197,118 208,112 Q219,106 237,106 Q251,106 264,112.5 Q277,119 288.5,128 Q300,137 308.5,147 Q317,157 322,163 L322,514 L457,514 M408,672 L359,601 L253,678 L146,601 L98,671 L217,784 L282,784"/> 
            <glyph glyph-name="ü" unicode="&#xFC;" horiz-adv-x="457" d=" M457,0 L340,0 L332,69 L304,44 Q298,39 287.5,29.5 Q277,20 261,11 Q245,2 224.5,-5 Q204,-12 179,-12 Q108,-12 77.5,32 Q47,76 47,167 L47,514 L182,514 L182,234 Q182,197 183.5,172.5 Q185,148 191,133 Q197,118 208,112 Q219,106 237,106 Q251,106 264,112.5 Q277,119 288.5,128 Q300,137 308.5,147 Q317,157 322,163 L322,514 L457,514 M416,672 Q416,638 396.5,617 Q377,596 348,596 Q319,596 300,617 Q281,638 281,672 Q281,706 300,727 Q319,748 348,748 Q377,748 396.5,727 Q416,706 416,672 M224,672 Q224,638 205.5,617 Q187,596 158,596 Q129,596 109.5,617 Q90,638 90,672 Q90,706 109.5,727 Q129,748 158,748 Q187,748 205.5,727 Q224,706 224,672"/> 
            <glyph glyph-name="ý" unicode="&#xFD;" horiz-adv-x="453" d=" M453,514 L284,-29 Q268,-80 246.5,-113.5 Q225,-147 202.5,-169 Q180,-191 158.5,-203.5 Q137,-216 121,-225 Q116,-218 107.5,-207 Q99,-196 90.5,-184 Q82,-172 74,-161 Q66,-150 61,-143 Q67,-138 81.5,-128.5 Q96,-119 113,-103 Q130,-87 145.5,-64.5 Q161,-42 169,-11 L7,514 L148,514 Q152,499 158.5,471.5 Q165,444 173,410 Q181,376 190,338 Q199,300 207,264 Q215,228 221.5,196.5 Q228,165 232,144 Q238,176 250,229.5 Q262,283 274.5,338.5 Q287,394 299,442.5 Q311,491 317,514 M388,721 Q349,683 309.5,647 Q270,611 231,573 L173,627 L312,794"/> 
            <glyph glyph-name="þ" unicode="&#xFE;" horiz-adv-x="482" d=" M49,719 L183,739 L183,452 L185,452 Q195,464 208.5,477 Q222,490 239.5,500.5 Q257,511 277,518 Q297,525 320,525 Q353,525 382.5,510 Q412,495 434,463 Q456,431 469,381.5 Q482,332 482,263 Q482,185 464.5,133 Q447,81 418.5,49.5 Q390,18 353,5 Q316,-8 277,-8 Q252,-8 227.5,-3 Q203,2 183,13 L183,-229 L49,-229 M263,414 Q251,414 238.5,409 Q226,404 215.5,396.5 Q205,389 196.5,381 Q188,373 183,366 L183,100 Q213,82 247,82 Q295,82 319,122 Q343,162 343,253 Q343,342 322.5,378 Q302,414 263,414"/> 
            <glyph glyph-name="ÿ" unicode="&#xFF;" horiz-adv-x="453" d=" M453,514 L284,-29 Q268,-80 246.5,-113.5 Q225,-147 202.5,-169 Q180,-191 158.5,-203.5 Q137,-216 121,-225 Q116,-218 107.5,-207 Q99,-196 90.5,-184 Q82,-172 74,-161 Q66,-150 61,-143 Q67,-138 81.5,-128.5 Q96,-119 113,-103 Q130,-87 145.5,-64.5 Q161,-42 169,-11 L7,514 L148,514 Q152,499 158.5,471.5 Q165,444 173,410 Q181,376 190,338 Q199,300 207,264 Q215,228 221.5,196.5 Q228,165 232,144 Q238,176 250,229.5 Q262,283 274.5,338.5 Q287,394 299,442.5 Q311,491 317,514 M392,672 Q392,638 372.5,617 Q353,596 324,596 Q295,596 276,617 Q257,638 257,672 Q257,706 276,727 Q295,748 324,748 Q353,748 372.5,727 Q392,706 392,672 M200,672 Q200,638 181.5,617 Q163,596 134,596 Q105,596 85.5,617 Q66,638 66,672 Q66,706 85.5,727 Q105,748 134,748 Q163,748 181.5,727 Q200,706 200,672"/> 
            <glyph glyph-name="ı" unicode="&#x131;" horiz-adv-x="187" d=" M187,0 L52,0 L52,514 L187,514"/> 
            <glyph glyph-name="Ł" unicode="&#x141;" horiz-adv-x="408" d=" M408,0 L66,0 L66,210 L35,182 L-5,242 L66,303 L66,658 L205,658 L205,414 L283,483 L323,423 L205,321 L205,117 L399,117"/> 
            <glyph glyph-name="ł" unicode="&#x142;" horiz-adv-x="301" d=" M207,489 L257,534 Q268,520 279,506 Q290,492 301,478 L207,394 L207,0 L73,0 L73,286 L44,259 Q33,273 22,287 Q11,301 0,315 L73,380 L73,739 L207,739"/> 
            <glyph glyph-name="ō" unicode="&#x14D;" horiz-adv-x="469" d=" M469,257 Q469,184 453,133 Q437,82 408,49.5 Q379,17 338.5,2.5 Q298,-12 248,-12 Q198,-12 157,2.5 Q116,17 87.5,49.5 Q59,82 43.5,133 Q28,184 28,257 Q28,329 43.5,380 Q59,431 87.5,463.5 Q116,496 157,510.5 Q198,525 248,525 Q298,525 338.5,510.5 Q379,496 408,463.5 Q437,431 453,380 Q469,329 469,257 M248,426 Q206,426 186.5,386.5 Q167,347 167,257 Q167,166 186.5,126.5 Q206,87 248,87 Q290,87 309.5,126.5 Q329,166 329,257 Q329,347 309.5,386.5 Q290,426 248,426 M374,626 L119,626 L119,706 L374,706"/> 
            <glyph glyph-name="ő" unicode="&#x151;" horiz-adv-x="469" d=" M469,257 Q469,184 453,133 Q437,82 408,49.5 Q379,17 338.5,2.5 Q298,-12 248,-12 Q198,-12 157,2.5 Q116,17 87.5,49.5 Q59,82 43.5,133 Q28,184 28,257 Q28,329 43.5,380 Q59,431 87.5,463.5 Q116,496 157,510.5 Q198,525 248,525 Q298,525 338.5,510.5 Q379,496 408,463.5 Q437,431 453,380 Q469,329 469,257 M329,257 Q329,347 309.5,386.5 Q290,426 248,426 Q206,426 186.5,386.5 Q167,347 167,257 Q167,166 186.5,126.5 Q206,87 248,87 Q290,87 309.5,126.5 Q329,166 329,257 M349,585 L273,615 L358,801 L446,745 M184,585 L107,615 L191,801 L279,745"/> 
            <glyph glyph-name="Œ" unicode="&#x152;" horiz-adv-x="750" d=" M394,0 L394,42 Q352,-13 284,-13 Q163,-13 98,70.5 Q33,154 33,329 Q33,504 98,587 Q163,670 284,670 Q352,670 394,615 L394,658 L750,658 L750,545 L534,545 L534,393 L698,393 L698,287 L534,287 L534,113 L750,113 L750,0 M284,98 Q342,98 367,158.5 Q392,219 392,329 Q392,439 366.5,499 Q341,559 284,559 Q227,559 201.5,499 Q176,439 176,329 Q176,219 201,158.5 Q226,98 284,98"/> 
            <glyph glyph-name="œ" unicode="&#x153;" horiz-adv-x="716" d=" M701,37 Q695,33 681,25 Q667,17 644.5,8.5 Q622,0 592,-6 Q562,-12 525,-12 Q485,-12 450.5,4.5 Q416,21 391,56 Q366,21 329.5,4.5 Q293,-12 248,-12 Q198,-12 157,2.5 Q116,17 87.5,49.5 Q59,82 43.5,133 Q28,184 28,257 Q28,329 43.5,380 Q59,431 87.5,463.5 Q116,496 157,510.5 Q198,525 248,525 Q295,525 332,507.5 Q369,490 394,452 Q419,489 451.5,507 Q484,525 522,525 Q565,525 600.5,511.5 Q636,498 661.5,468.5 Q687,439 701.5,394 Q716,349 716,286 Q716,259 713.5,239.5 Q711,220 710,216 L449,216 Q450,149 479,119.5 Q508,90 551,90 Q591,90 623.5,103.5 Q656,117 674,125 M329,257 Q329,347 309.5,386.5 Q290,426 248,426 Q206,426 186.5,386.5 Q167,347 167,257 Q167,166 186.5,126.5 Q206,87 248,87 Q290,87 309.5,126.5 Q329,166 329,257 M521,429 Q508,429 495,422.5 Q482,416 472,401 Q462,386 455.5,361 Q449,336 449,300 L586,300 Q586,338 581,363 Q576,388 567.5,402.5 Q559,417 547,423 Q535,429 521,429"/> 
            <glyph glyph-name="Š" unicode="&#x160;" horiz-adv-x="423" d=" M245,670 Q282,670 311.5,664.5 Q341,659 362.5,651.5 Q384,644 398.5,637 Q413,630 421,627 L389,526 Q381,529 367.5,535.5 Q354,542 337,548.5 Q320,555 300,560.5 Q280,566 260,566 Q237,566 221,558.5 Q205,551 194.5,540 Q184,529 179.5,516 Q175,503 175,493 Q175,463 193.5,441 Q212,419 239.5,400.5 Q267,382 299,363 Q331,344 358.5,320 Q386,296 404.5,263.5 Q423,231 423,185 Q423,91 368,39 Q313,-13 204,-13 Q166,-13 136.5,-6.5 Q107,0 84.5,8.5 Q62,17 46.5,25 Q31,33 23,36 L55,137 Q62,134 75.5,127.5 Q89,121 106.5,114.5 Q124,108 144,102.5 Q164,97 184,97 Q202,97 219.5,101.5 Q237,106 251,115 Q265,124 273.5,138 Q282,152 282,172 Q282,200 263.5,220 Q245,240 217.5,258 Q190,276 158,295 Q126,314 98.5,339 Q71,364 52.5,397.5 Q34,431 34,480 Q34,568 89.5,619 Q145,670 245,670 M254,731 L189,731 L70,844 L118,914 L225,837 L331,914 L380,843"/> 
            <glyph glyph-name="š" unicode="&#x161;" horiz-adv-x="355" d=" M41,118 Q47,116 59,110.5 Q71,105 87,99.5 Q103,94 120.5,90 Q138,86 155,86 Q184,86 200,95 Q216,104 216,133 Q216,154 202.5,170.5 Q189,187 168,202.5 Q147,218 123.5,235 Q100,252 79,272.5 Q58,293 44.5,318.5 Q31,344 31,379 Q31,448 76,486.5 Q121,525 204,525 Q255,525 288,517 Q321,509 335,504 Q333,479 331,454.5 Q329,430 327,406 Q316,409 286,417 Q256,425 225,425 Q161,425 161,385 Q161,366 175.5,350.5 Q190,335 211.5,320 Q233,305 258,288.5 Q283,272 304.5,251.5 Q326,231 340.5,204 Q355,177 355,141 Q355,109 345,81 Q335,53 313.5,32.5 Q292,12 258.5,0 Q225,-12 178,-12 Q146,-12 120,-7 Q94,-2 74,4.5 Q54,11 40,17.5 Q26,24 18,28 M475,587 L410,587 L291,700 L339,770 L446,693 L552,770 L601,699"/> 
            <glyph glyph-name="Ÿ" unicode="&#x178;" horiz-adv-x="530" d=" M334,0 L195,0 L195,217 L177,257 Q132,357 87.5,457 Q43,557 -2,658 L147,658 Q164,612 182,564.5 Q200,517 215.5,474.5 Q231,432 244,397 Q257,362 264,342 Q271,362 284,397 Q297,432 312.5,474.5 Q328,517 346,564.5 Q364,612 381,658 L530,658 Q485,557 440.5,457 Q396,357 351,257 L334,217 M427,816 Q427,782 407.5,761 Q388,740 359,740 Q330,740 311,761 Q292,782 292,816 Q292,850 311,871 Q330,892 359,892 Q388,892 407.5,871 Q427,850 427,816 M235,816 Q235,782 216.5,761 Q198,740 169,740 Q140,740 120.5,761 Q101,782 101,816 Q101,850 120.5,871 Q140,892 169,892 Q198,892 216.5,871 Q235,850 235,816"/> 
            <glyph glyph-name="Ž" unicode="&#x17D;" horiz-adv-x="433" d=" M429,568 Q368,453 307,340 Q246,227 184,112 L433,112 L433,0 L28,0 L28,90 L274,546 L35,546 L35,658 L429,658 M262,731 L197,731 L78,844 L126,914 L233,837 L339,914 L388,843"/> 
            <glyph glyph-name="ž" unicode="&#x17E;" horiz-adv-x="359" d=" M356,430 L171,103 L359,103 L359,0 L22,0 L22,87 L205,411 L34,411 L34,514 L356,514 M479,587 L414,587 L295,700 L343,770 L450,693 L556,770 L605,699"/> 
            <glyph glyph-name="ƒ" unicode="&#x192;" horiz-adv-x="429" d=" M391,391 L293,391 L257,-24 Q254,-82 241,-122.5 Q228,-163 205.5,-189 Q183,-215 150.5,-227 Q118,-239 77,-239 Q60,-239 48,-238 Q36,-237 25,-235 L31,-135 Q51,-132 68,-127.5 Q85,-123 98,-110 Q111,-97 118.5,-72.5 Q126,-48 128,-6 L162,391 L115,391 Q113,415 112.5,439 Q112,463 111,487 L169,487 L175,585 Q175,671 212.5,713 Q250,755 319,755 Q367,755 392.5,745.5 Q418,736 429,733 L417,639 Q412,641 395,646 Q378,651 356,651 Q327,651 316.5,630.5 Q306,610 303,567 L301,487 L399,487"/> 
            <glyph glyph-name="ˆ" unicode="&#x2C6;" horiz-adv-x="357" d=" M357,672 L308,601 L202,678 L95,601 L47,671 L166,784 L231,784"/> 
            <glyph glyph-name="ˇ" unicode="&#x2C7;" horiz-adv-x="358" d=" M232,587 L167,587 L48,700 L96,770 L203,693 L309,770 L358,699"/> 
            <glyph glyph-name="˘" unicode="&#x2D8;" horiz-adv-x="357" d=" M206,670 Q227,670 243,676.5 Q259,683 269.5,692 Q280,701 285,710.5 Q290,720 290,727 L357,704 Q357,683 348,662 Q339,641 320,623.5 Q301,606 273,595 Q245,584 206,584 Q168,584 139.5,594.5 Q111,605 92,622 Q73,639 64,660 Q55,681 55,702 Q72,708 88.5,714.5 Q105,721 122,727 Q122,719 127,709.5 Q132,700 142.5,691 Q153,682 169,676 Q185,670 206,670"/> 
            <glyph glyph-name="˙" unicode="&#x2D9;" horiz-adv-x="295" d=" M295,673 Q295,637 273,614.5 Q251,592 219,592 Q187,592 165,614.5 Q143,637 143,673 Q143,709 165,732 Q187,755 219,755 Q251,755 273,732 Q295,709 295,673"/> 
            <glyph glyph-name="˚" unicode="&#x2DA;" horiz-adv-x="297" d=" M297,710 Q297,660 267,627.5 Q237,595 191,595 Q144,595 114.5,627.5 Q85,660 85,710 Q85,759 115,791 Q145,823 191,823 Q213,823 232.5,814.5 Q252,806 266,791 Q280,776 288.5,755 Q297,734 297,710 M235,710 Q235,733 223,747.5 Q211,762 191,762 Q171,762 158.5,747.5 Q146,733 146,710 Q146,687 158.5,672 Q171,657 191,657 Q211,657 223,672 Q235,687 235,710"/> 
            <glyph glyph-name="˛" unicode="&#x2DB;" horiz-adv-x="267" d=" M261,16 Q253,11 237,1 Q221,-9 205,-24.5 Q189,-40 176.5,-61 Q164,-82 164,-110 Q164,-136 183.5,-147 Q203,-158 226,-158 Q241,-158 255,-155 L267,-222 Q251,-224 231.5,-228 Q212,-232 189,-232 Q133,-232 103.5,-204 Q74,-176 74,-124 Q74,-90 90.5,-62.5 Q107,-35 129.5,-14.5 Q152,6 174,19 Q196,32 207,38"/> 
            <glyph glyph-name="˜" unicode="&#x2DC;" horiz-adv-x="400" d=" M400,698 Q392,687 381.5,671.5 Q371,656 356.5,641 Q342,626 323.5,615.5 Q305,605 280,605 Q259,605 242.5,611 Q226,617 211,624.5 Q196,632 181.5,638.5 Q167,645 151,645 Q139,645 127.5,641 Q116,637 107,631 Q98,625 91,619 Q84,613 81,609 L31,654 Q40,664 51,680 Q62,696 76.5,710 Q91,724 110,734.5 Q129,745 154,745 Q175,745 192,738.5 Q209,732 224,724 Q239,716 253,709.5 Q267,703 283,703 Q295,703 306,707.5 Q317,712 326,718 Q335,724 341,729.5 Q347,735 349,738"/> 
            <glyph glyph-name="˝" unicode="&#x2DD;" horiz-adv-x="394" d=" M297,585 L221,615 L306,801 L394,745 M132,585 L55,615 L139,801 L227,745"/> 
            <glyph glyph-name="Ё" unicode="&#x401;" horiz-adv-x="426" d=" M426,0 L62,0 L62,658 L418,658 Q416,630 413.5,602 Q411,574 408,545 L202,545 L202,393 L366,393 L366,287 L202,287 L202,113 L417,113 M396,808 Q396,774 376.5,753 Q357,732 328,732 Q299,732 280,753 Q261,774 261,808 Q261,842 280,863 Q299,884 328,884 Q357,884 376.5,863 Q396,842 396,808 M204,808 Q204,774 185.5,753 Q167,732 138,732 Q109,732 89.5,753 Q70,774 70,808 Q70,842 89.5,863 Q109,884 138,884 Q167,884 185.5,863 Q204,842 204,808"/> 
            <glyph glyph-name="Ђ" unicode="&#x402;" horiz-adv-x="589" d=" M437,658 L437,546 L296,546 L296,371 Q303,374 314.5,381 Q326,388 341,395.5 Q356,403 375,408.5 Q394,414 418,414 Q589,414 589,169 Q589,94 571.5,43 Q554,-8 522,-40 Q490,-72 444,-87.5 Q398,-103 340,-107 L340,2 Q386,7 417.5,44 Q449,81 449,156 Q449,204 445,231.5 Q441,259 432.5,273 Q424,287 411.5,291 Q399,295 382,295 Q359,295 334.5,285.5 Q310,276 296,267 L296,0 L156,0 L156,546 L14,546 L14,658"/> 
            <glyph glyph-name="Ѓ" unicode="&#x403;" horiz-adv-x="383" d=" M201,538 L201,0 L62,0 L62,658 L383,658 L383,538 M349,850 L193,702 L135,756 L274,923"/> 
            <glyph glyph-name="Є" unicode="&#x404;" horiz-adv-x="454" d=" M179,278 Q184,185 216.5,140.5 Q249,96 325,96 Q361,96 391,105.5 Q421,115 435,121 Q440,95 444.5,68.5 Q449,42 454,16 Q448,14 435,9 Q422,4 402.5,-1.5 Q383,-7 357.5,-11 Q332,-15 301,-15 Q167,-15 100,69.5 Q33,154 33,328 Q33,502 100,586.5 Q167,671 301,671 Q332,671 357.5,667 Q383,663 402.5,657.5 Q422,652 435,647 Q448,642 454,640 Q449,614 444.5,587.5 Q440,561 435,535 Q421,541 391,550.5 Q361,560 325,560 Q251,560 219,518 Q187,476 180,390 L363,390 L363,278"/> 
            <glyph glyph-name="Ѕ" unicode="&#x405;" horiz-adv-x="423" d=" M245,670 Q282,670 311.5,664.5 Q341,659 362.5,651.5 Q384,644 398.5,637 Q413,630 421,627 L389,526 Q381,529 367.5,535.5 Q354,542 337,548.5 Q320,555 300,560.5 Q280,566 260,566 Q237,566 221,558.5 Q205,551 194.5,540 Q184,529 179.5,516 Q175,503 175,493 Q175,463 193.5,441 Q212,419 239.5,400.5 Q267,382 299,363 Q331,344 358.5,320 Q386,296 404.5,263.5 Q423,231 423,185 Q423,91 368,39 Q313,-13 204,-13 Q166,-13 136.5,-6.5 Q107,0 84.5,8.5 Q62,17 46.5,25 Q31,33 23,36 L55,137 Q62,134 75.5,127.5 Q89,121 106.5,114.5 Q124,108 144,102.5 Q164,97 184,97 Q202,97 219.5,101.5 Q237,106 251,115 Q265,124 273.5,138 Q282,152 282,172 Q282,200 263.5,220 Q245,240 217.5,258 Q190,276 158,295 Q126,314 98.5,339 Q71,364 52.5,397.5 Q34,431 34,480 Q34,568 89.5,619 Q145,670 245,670"/> 
            <glyph glyph-name="І" unicode="&#x406;" horiz-adv-x="201" d=" M201,0 L62,0 L62,658 L201,658"/> 
            <glyph glyph-name="Ї" unicode="&#x407;" horiz-adv-x="294" d=" M201,0 L62,0 L62,658 L201,658 M294,801 Q294,767 275,746 Q256,725 227,725 Q198,725 179,746 Q160,767 160,801 Q160,835 179,856 Q198,877 227,877 Q256,877 275,856 Q294,835 294,801 M102,801 Q102,767 83.5,746 Q65,725 36,725 Q8,725 -11.5,746 Q-31,767 -31,801 Q-31,835 -11.5,856 Q8,877 36,877 Q65,877 83.5,856 Q102,835 102,801"/> 
            <glyph glyph-name="Ј" unicode="&#x408;" horiz-adv-x="211" d=" M211,130 Q211,37 198,-21 Q185,-79 159.5,-111.5 Q134,-144 97,-155.5 Q60,-167 11,-167 Q3,-167 -5,-166.5 Q-13,-166 -21,-165 Q-19,-139 -17.5,-113.5 Q-16,-88 -14,-62 Q17,-59 37,-29 Q57,-15 65,13.5 Q73,42 73,99 L73,658 L211,658"/> 
            <glyph glyph-name="Љ" unicode="&#x409;" horiz-adv-x="802" d=" M373,541 L253,541 Q247,410 235,307 Q223,204 209,122 Q202,83 189.5,57.5 Q177,32 158,18 Q139,4 113.5,-1.5 Q88,-7 56,-7 Q36,-7 20,-4 L22,98 Q51,100 66.5,112 Q82,124 88,158 Q104,248 112.5,369.5 Q121,491 128,658 L512,658 L512,418 Q523,420 544.5,421 Q566,422 590,422 Q637,422 676,411 Q715,400 743,375.5 Q771,351 786.5,312.5 Q802,274 802,219 Q802,160 783.5,117.5 Q765,75 732,47.5 Q699,20 652.5,6.5 Q606,-7 551,-7 Q492,-7 445.5,-3.5 Q399,0 373,0 M566,321 Q549,321 533,320 Q517,319 512,318 L512,99 Q525,98 537.5,98 Q550,98 562,98 Q609,98 636.5,127.5 Q664,157 664,211 Q664,271 637.5,296 Q611,321 566,321"/> 
            </font>
</defs>
</svg>
